<svg width="412" height="797" viewBox="0 0 412 797" fill="none" xmlns="http://www.w3.org/2000/svg">
<rect x="1" y="1" width="410" height="795" fill="black" stroke="#BFBFBF" stroke-width="2"/>
<path d="M126.27 430.84C123.377 430.84 120.787 430.07 118.5 428.53C116.26 426.943 114.51 424.82 113.25 422.16C111.99 419.5 111.36 416.583 111.36 413.41C111.36 410.143 111.99 407.18 113.25 404.52C114.51 401.86 116.213 399.783 118.36 398.29C120.553 396.75 122.933 395.98 125.5 395.98C128.347 395.98 130.797 397.007 132.85 399.06C134.903 401.067 136.257 403.727 136.91 407.04C137.237 408.533 137.4 410.867 137.4 414.04H120.32C120.32 416.28 120.367 418.053 120.46 419.36C120.553 420.62 120.763 421.857 121.09 423.07C121.51 424.797 122.303 426.173 123.47 427.2C124.683 428.227 126.083 428.74 127.67 428.74C129.957 428.74 131.8 427.737 133.2 425.73C134.6 423.723 135.44 421.367 135.72 418.66H137.54C137.26 421.88 136.21 424.727 134.39 427.2C132.57 429.627 129.863 430.84 126.27 430.84ZM129.28 412.08C129.28 407.18 128.953 403.563 128.3 401.23C127.693 398.85 126.527 397.66 124.8 397.66C123.073 397.66 121.883 398.85 121.23 401.23C120.623 403.563 120.32 407.18 120.32 412.08H129.28ZM142.838 428.32H146.758C147.178 428.32 147.458 428.25 147.598 428.11C147.784 427.923 147.878 427.62 147.878 427.2V382.96C147.878 382.54 147.784 382.26 147.598 382.12C147.458 381.933 147.178 381.84 146.758 381.84H142.838V380.16H155.998V427.2C155.998 427.62 156.068 427.923 156.208 428.11C156.394 428.25 156.698 428.32 157.118 428.32H161.038V430H142.838V428.32ZM172.911 389.68C171.464 389.68 170.227 389.19 169.201 388.21C168.221 387.183 167.731 385.947 167.731 384.5C167.731 383.007 168.221 381.77 169.201 380.79C170.227 379.81 171.464 379.32 172.911 379.32C174.404 379.32 175.641 379.81 176.621 380.79C177.601 381.77 178.091 383.007 178.091 384.5C178.091 385.947 177.601 387.183 176.621 388.21C175.641 389.19 174.404 389.68 172.911 389.68ZM165.351 428.32H168.011C168.431 428.32 168.711 428.25 168.851 428.11C169.037 427.923 169.131 427.62 169.131 427.2V399.62C169.131 399.2 169.037 398.92 168.851 398.78C168.711 398.593 168.431 398.5 168.011 398.5H165.351V396.82H177.251V427.2C177.251 427.62 177.321 427.923 177.461 428.11C177.647 428.25 177.951 428.32 178.371 428.32H181.031V430H165.351V428.32ZM185.224 444.28H189.144C189.564 444.28 189.844 444.187 189.984 444C190.17 443.86 190.264 443.58 190.264 443.16V399.62C190.264 399.2 190.17 398.92 189.984 398.78C189.844 398.593 189.564 398.5 189.144 398.5H185.224V396.82H198.384V400.88H198.804C199.41 399.573 200.274 398.43 201.394 397.45C202.56 396.47 203.89 395.98 205.384 395.98C207.81 395.98 209.98 396.82 211.894 398.5C213.807 400.133 215.3 402.303 216.374 405.01C217.447 407.67 217.984 410.47 217.984 413.41C217.984 416.397 217.47 419.22 216.444 421.88C215.417 424.54 213.97 426.71 212.104 428.39C210.237 430.023 208.09 430.84 205.664 430.84C204.17 430.84 202.84 430.397 201.674 429.51C200.507 428.623 199.55 427.41 198.804 425.87L198.384 426.01V443.16C198.384 443.58 198.454 443.86 198.594 444C198.78 444.187 199.084 444.28 199.504 444.28H203.424V445.96H185.224V444.28ZM204.404 428.6C207.484 428.6 209.024 423.537 209.024 413.41C209.024 403.283 207.484 398.22 204.404 398.22C203.33 398.22 202.327 398.897 201.394 400.25C200.507 401.557 199.784 403.353 199.224 405.64C198.664 407.927 198.384 410.447 198.384 413.2C198.384 416.56 198.71 419.407 199.364 421.74C200.017 424.073 200.81 425.8 201.744 426.92C202.677 428.04 203.564 428.6 204.404 428.6ZM225.4 416.98H226.94L230.09 422.51C232.61 426.943 235.783 429.16 239.61 429.16C241.337 429.16 242.62 428.74 243.46 427.9C244.3 427.013 244.72 426.033 244.72 424.96C244.72 424.027 244.463 423.233 243.95 422.58C243.483 421.88 242.643 421.18 241.43 420.48C240.263 419.733 238.443 418.753 235.97 417.54C232.983 416.093 230.463 414.46 228.41 412.64C226.403 410.82 225.4 408.44 225.4 405.5C225.4 402.607 226.31 400.297 228.13 398.57C229.95 396.843 232.167 395.98 234.78 395.98C236.973 395.98 239.307 396.773 241.78 398.36C242.667 398.92 243.367 399.2 243.88 399.2C244.44 399.2 244.813 398.827 245 398.08L245.42 396.68H246.68V407.88H245.14L243.81 405.22C242.55 402.7 241.103 400.81 239.47 399.55C237.837 398.29 236.18 397.66 234.5 397.66C233.24 397.66 232.19 397.963 231.35 398.57C230.557 399.177 230.16 400.157 230.16 401.51C230.16 404.263 232.633 406.807 237.58 409.14C240.613 410.587 242.923 411.87 244.51 412.99C246.143 414.11 247.333 415.323 248.08 416.63C248.827 417.937 249.2 419.547 249.2 421.46C249.2 424.353 248.267 426.64 246.4 428.32C244.58 430 242.293 430.84 239.54 430.84C237.207 430.84 234.78 430.093 232.26 428.6C231.14 427.853 230.3 427.48 229.74 427.48C229.133 427.48 228.597 427.667 228.13 428.04C227.663 428.367 227.337 428.81 227.15 429.37L226.66 430.84H225.4V416.98ZM269.688 430.84C266.795 430.84 264.205 430.07 261.918 428.53C259.678 426.943 257.928 424.82 256.668 422.16C255.408 419.5 254.778 416.583 254.778 413.41C254.778 410.143 255.408 407.18 256.668 404.52C257.928 401.86 259.631 399.783 261.778 398.29C263.971 396.75 266.351 395.98 268.918 395.98C271.765 395.98 274.215 397.007 276.268 399.06C278.321 401.067 279.675 403.727 280.328 407.04C280.655 408.533 280.818 410.867 280.818 414.04H263.738C263.738 416.28 263.785 418.053 263.878 419.36C263.971 420.62 264.181 421.857 264.508 423.07C264.928 424.797 265.721 426.173 266.888 427.2C268.101 428.227 269.501 428.74 271.088 428.74C273.375 428.74 275.218 427.737 276.618 425.73C278.018 423.723 278.858 421.367 279.138 418.66H280.958C280.678 421.88 279.628 424.727 277.808 427.2C275.988 429.627 273.281 430.84 269.688 430.84ZM272.698 412.08C272.698 407.18 272.371 403.563 271.718 401.23C271.111 398.85 269.945 397.66 268.218 397.66C266.491 397.66 265.301 398.85 264.648 401.23C264.041 403.563 263.738 407.18 263.738 412.08H272.698Z" fill="white"/>
<path d="M70.52 759.04H72.2C72.52 759.04 72.7467 758.973 72.88 758.84C73.0133 758.707 73.08 758.48 73.08 758.16V743.6C73.08 743.28 73.0133 743.053 72.88 742.92C72.7467 742.787 72.52 742.72 72.2 742.72H70.52V741.76H79.88C81.56 741.76 82.92 742.16 83.96 742.96C85.0267 743.76 85.56 744.827 85.56 746.16C85.56 747.36 85.16 748.307 84.36 749C83.5867 749.667 82.7067 750.107 81.72 750.32V750.4C82.2533 750.453 82.8933 750.653 83.64 751C84.3867 751.32 85.04 751.813 85.6 752.48C86.16 753.147 86.44 753.973 86.44 754.96C86.44 756.48 85.8133 757.707 84.56 758.64C83.3333 759.547 81.88 760 80.2 760H70.52V759.04ZM79.32 750C80.4133 750 81.2133 749.653 81.72 748.96C82.2533 748.267 82.52 747.387 82.52 746.32C82.52 745.28 82.2267 744.427 81.64 743.76C81.0533 743.067 80.3067 742.72 79.4 742.72H76.84C76.52 742.72 76.2933 742.787 76.16 742.92C76.0267 743.053 75.96 743.28 75.96 743.6V750H79.32ZM79.72 759.04C80.7867 759.04 81.5867 758.64 82.12 757.84C82.6533 757.013 82.92 756.053 82.92 754.96C82.92 753.787 82.6533 752.827 82.12 752.08C81.5867 751.333 80.76 750.96 79.64 750.96H75.96V758.16C75.96 758.48 76.0267 758.707 76.16 758.84C76.2933 758.973 76.52 759.04 76.84 759.04H79.72ZM115.15 760.48C113.87 760.48 112.963 760.133 112.43 759.44C111.923 758.72 111.643 757.6 111.59 756.08C111.536 754.213 111.323 752.893 110.95 752.12C110.603 751.347 109.936 750.96 108.95 750.96H106.39V758.16C106.39 758.48 106.456 758.707 106.59 758.84C106.723 758.973 106.95 759.04 107.27 759.04H108.95V760H100.95V759.04H102.63C102.95 759.04 103.176 758.973 103.31 758.84C103.443 758.707 103.51 758.48 103.51 758.16V743.64C103.51 743.32 103.443 743.093 103.31 742.96C103.176 742.827 102.95 742.76 102.63 742.76H100.95V741.8H108.95V742.76H107.27C106.95 742.76 106.723 742.827 106.59 742.96C106.456 743.093 106.39 743.32 106.39 743.64V750H108.99C109.87 750 110.483 749.493 110.83 748.48C111.203 747.44 111.443 746.173 111.55 744.68C111.63 743.533 111.936 742.68 112.47 742.12C113.03 741.56 113.683 741.28 114.43 741.28C115.31 741.28 115.963 741.573 116.39 742.16C116.843 742.747 117.07 743.4 117.07 744.12C117.07 744.84 116.856 745.427 116.43 745.88C116.003 746.333 115.496 746.56 114.91 746.56C114.376 746.56 113.963 746.413 113.67 746.12C113.376 745.827 113.23 745.467 113.23 745.04C113.23 744.8 113.296 744.573 113.43 744.36C113.563 744.12 113.71 743.947 113.87 743.84C114.163 743.627 114.31 743.4 114.31 743.16C114.31 742.787 114.096 742.6 113.67 742.6C113.35 742.6 113.07 742.787 112.83 743.16C112.616 743.507 112.496 744 112.47 744.64C112.39 746 112.176 747.24 111.83 748.36C111.483 749.48 110.923 750.173 110.15 750.44V750.56C111.83 751.04 113.056 751.773 113.83 752.76C114.203 753.213 114.47 753.76 114.63 754.4C114.79 755.04 114.91 755.787 114.99 756.64C115.07 757.387 115.19 757.973 115.35 758.4C115.536 758.827 115.83 759.04 116.23 759.04C116.87 759.04 117.296 758.653 117.51 757.88C117.723 757.107 117.83 756.293 117.83 755.44H118.55C118.55 756.693 118.31 757.853 117.83 758.92C117.376 759.96 116.483 760.48 115.15 760.48ZM121.028 759.04H122.708C123.028 759.04 123.254 758.973 123.388 758.84C123.521 758.707 123.588 758.48 123.588 758.16V743.6C123.588 743.28 123.521 743.053 123.388 742.92C123.254 742.787 123.028 742.72 122.708 742.72H121.028V741.76H129.028V742.72H127.348C127.028 742.72 126.801 742.787 126.668 742.92C126.534 743.053 126.468 743.28 126.468 743.6V755.36L134.068 744.64V743.6C134.068 743.28 134.001 743.053 133.868 742.92C133.734 742.787 133.508 742.72 133.188 742.72H131.508V741.76H139.508V742.72H137.828C137.508 742.72 137.281 742.787 137.148 742.92C137.014 743.053 136.948 743.28 136.948 743.6V758.16C136.948 758.48 137.014 758.707 137.148 758.84C137.281 758.973 137.508 759.04 137.828 759.04H139.508V760H131.508V759.04H133.188C133.508 759.04 133.734 758.973 133.868 758.84C134.001 758.707 134.068 758.48 134.068 758.16V746.4L126.468 757.12V758.16C126.468 758.48 126.534 758.707 126.668 758.84C126.801 758.973 127.028 759.04 127.348 759.04H129.028V760H121.028V759.04ZM142.551 759.04H144.231C144.551 759.04 144.778 758.973 144.911 758.84C145.045 758.707 145.111 758.48 145.111 758.16V743.6C145.111 743.28 145.045 743.053 144.911 742.92C144.778 742.787 144.551 742.72 144.231 742.72H142.551V741.76H150.551V742.72H148.871C148.551 742.72 148.325 742.787 148.191 742.92C148.058 743.053 147.991 743.28 147.991 743.6V750H155.991V743.6C155.991 743.28 155.925 743.053 155.791 742.92C155.658 742.787 155.431 742.72 155.111 742.72H153.431V741.76H161.431V742.72H159.751C159.431 742.72 159.205 742.787 159.071 742.92C158.938 743.053 158.871 743.28 158.871 743.6V758.16C158.871 758.48 158.938 758.707 159.071 758.84C159.205 758.973 159.431 759.04 159.751 759.04H161.431V760H153.431V759.04H155.111C155.431 759.04 155.658 758.973 155.791 758.84C155.925 758.707 155.991 758.48 155.991 758.16V750.96H147.991V758.16C147.991 758.48 148.058 758.707 148.191 758.84C148.325 758.973 148.551 759.04 148.871 759.04H150.551V760H142.551V759.04ZM172.865 760.48C171.399 760.48 170.052 760.053 168.825 759.2C167.599 758.32 166.625 757.147 165.905 755.68C165.212 754.213 164.865 752.613 164.865 750.88C164.865 749.147 165.212 747.547 165.905 746.08C166.625 744.613 167.599 743.453 168.825 742.6C170.052 741.72 171.399 741.28 172.865 741.28C174.332 741.28 175.679 741.72 176.905 742.6C178.132 743.453 179.092 744.613 179.785 746.08C180.505 747.547 180.865 749.147 180.865 750.88C180.865 752.613 180.505 754.213 179.785 755.68C179.092 757.147 178.132 758.32 176.905 759.2C175.679 760.053 174.332 760.48 172.865 760.48ZM172.865 759.52C174.465 759.52 175.612 758.773 176.305 757.28C176.999 755.76 177.345 753.627 177.345 750.88C177.345 748.133 176.999 746.013 176.305 744.52C175.612 743 174.465 742.24 172.865 742.24C171.265 742.24 170.119 743 169.425 744.52C168.732 746.013 168.385 748.133 168.385 750.88C168.385 753.627 168.732 755.76 169.425 757.28C170.119 758.773 171.265 759.52 172.865 759.52ZM203.76 760.48C202.213 760.48 200.84 760.053 199.64 759.2C198.467 758.347 197.547 757.187 196.88 755.72C196.24 754.253 195.92 752.64 195.92 750.88C195.92 749.12 196.253 747.507 196.92 746.04C197.587 744.573 198.507 743.413 199.68 742.56C200.88 741.707 202.24 741.28 203.76 741.28C204.987 741.28 206.053 741.547 206.96 742.08C207.867 742.587 208.56 743.253 209.04 744.08C209.52 744.88 209.76 745.693 209.76 746.52C209.76 747.347 209.547 748 209.12 748.48C208.693 748.933 208.173 749.16 207.56 749.16C207.027 749.16 206.573 748.987 206.2 748.64C205.853 748.293 205.68 747.88 205.68 747.4C205.68 746.92 205.813 746.52 206.08 746.2C206.347 745.88 206.667 745.667 207.04 745.56C207.467 745.427 207.68 745.187 207.68 744.84C207.68 744.52 207.533 744.16 207.24 743.76C206.973 743.36 206.547 743.013 205.96 742.72C205.373 742.4 204.64 742.24 203.76 742.24C202.08 742.24 200.933 742.96 200.32 744.4C199.733 745.84 199.44 748 199.44 750.88C199.44 753.76 199.733 755.92 200.32 757.36C200.907 758.8 202.053 759.52 203.76 759.52C205.387 759.52 206.64 758.947 207.52 757.8C208.4 756.653 208.933 755.307 209.12 753.76H210.08C210 754.853 209.72 755.92 209.24 756.96C208.76 757.973 208.053 758.813 207.12 759.48C206.187 760.147 205.067 760.48 203.76 760.48ZM227.433 758.72H231.273C231.673 758.72 231.953 758.64 232.113 758.48C232.299 758.32 232.393 758.053 232.393 757.68V738.04H227.433V736.6H229.633C231.073 736.6 232.233 736.213 233.113 735.44C234.019 734.667 234.579 733.733 234.793 732.64H236.073V757.68C236.073 758.053 236.153 758.32 236.313 758.48C236.499 758.64 236.793 758.72 237.193 758.72H241.033V760H227.433V758.72ZM250.636 758.72H254.476C254.876 758.72 255.156 758.64 255.316 758.48C255.503 758.32 255.596 758.053 255.596 757.68V738.04H250.636V736.6H252.836C254.276 736.6 255.436 736.213 256.316 735.44C257.223 734.667 257.783 733.733 257.996 732.64H259.276V757.68C259.276 758.053 259.356 758.32 259.516 758.48C259.703 758.64 259.996 758.72 260.396 758.72H264.236V760H250.636V758.72ZM274.639 760.48C273.919 760.48 273.319 760.253 272.839 759.8C272.386 759.32 272.159 758.72 272.159 758C272.159 757.28 272.386 756.693 272.839 756.24C273.319 755.76 273.919 755.52 274.639 755.52C275.359 755.52 275.946 755.76 276.399 756.24C276.879 756.693 277.119 757.28 277.119 758C277.119 758.72 276.879 759.32 276.399 759.8C275.946 760.253 275.359 760.48 274.639 760.48ZM285.05 758.72H288.89C289.29 758.72 289.57 758.64 289.73 758.48C289.917 758.32 290.01 758.053 290.01 757.68V738.04H285.05V736.6H287.25C288.69 736.6 289.85 736.213 290.73 735.44C291.637 734.667 292.197 733.733 292.41 732.64H293.69V757.68C293.69 758.053 293.77 758.32 293.93 758.48C294.117 758.64 294.41 758.72 294.81 758.72H298.65V760H285.05V758.72ZM308.253 758.72H312.093C312.493 758.72 312.773 758.64 312.933 758.48C313.12 758.32 313.213 758.053 313.213 757.68V738.04H308.253V736.6H310.453C311.893 736.6 313.053 736.213 313.933 735.44C314.84 734.667 315.4 733.733 315.613 732.64H316.893V757.68C316.893 758.053 316.973 758.32 317.133 758.48C317.32 758.64 317.613 758.72 318.013 758.72H321.853V760H308.253V758.72Z" fill="white"/>
<path d="M321.904 426.854C322.343 423.785 323.74 421.421 326.097 419.762C328.449 418.136 331.482 417.52 335.194 417.915C337.315 418.14 339.229 418.762 340.934 419.781C342.672 420.803 343.985 422.098 344.871 423.666C345.786 425.271 346.114 426.981 345.855 428.795C345.567 430.808 344.785 432.4 343.507 433.571C342.229 434.742 340.705 435.518 338.935 435.899C337.193 436.317 335.443 436.433 333.686 436.246C333.322 436.207 333.09 436.065 332.99 435.82C332.923 435.579 332.93 435.177 333.01 434.616L334.771 422.292C331.456 421.939 328.755 422.121 326.667 422.838C324.575 423.587 323.376 425.034 323.069 427.179C322.852 428.697 323.23 430.177 324.201 431.62C325.168 433.097 326.852 434.146 329.253 434.77L329.084 435.958C326.692 435.503 324.807 434.448 323.428 432.794C322.078 431.177 321.57 429.197 321.904 426.854ZM334.593 432.021C337.244 432.303 339.531 432.194 341.453 431.694C343.375 431.195 344.449 430.154 344.676 428.57C344.916 426.887 344.172 425.501 342.443 424.413C340.742 423.361 338.583 422.696 335.964 422.418L334.593 432.021Z" fill="white"/>
<path d="M317.982 451.765L317.05 454.193C316.907 454.566 316.886 454.854 316.986 455.055C317.087 455.256 317.33 455.412 317.714 455.522L347.524 464.028C347.909 464.138 348.211 464.138 348.431 464.028C348.651 463.918 348.833 463.676 348.976 463.303L349.907 460.876L351.061 461.205L348.447 468.02L316.425 458.883C316.04 458.773 315.738 458.773 315.518 458.883C315.298 458.993 315.116 459.234 314.973 459.608L314.042 462.035L312.888 461.706L316.828 451.436L317.982 451.765Z" fill="white"/>
<path d="M332.606 488.261C332.975 487.627 333.514 487.194 334.224 486.96C334.935 486.726 335.626 486.755 336.299 487.046C337.003 487.351 337.443 487.812 337.62 488.429C337.828 489.06 337.747 489.692 337.378 490.326C336.993 490.989 336.453 491.423 335.76 491.628C335.08 491.874 334.388 491.846 333.685 491.541C333.012 491.25 332.572 490.789 332.364 490.158C332.14 489.556 332.22 488.924 332.606 488.261ZM309.455 473.159L308.399 474.974C308.198 475.32 308.132 475.598 308.201 475.808C308.27 476.019 308.488 476.203 308.856 476.362L325.559 483.589C325.926 483.748 326.228 483.789 326.465 483.711C326.702 483.633 326.921 483.421 327.122 483.075L328.178 481.26L329.279 481.737L325.86 487.614L307.045 479.474C306.678 479.315 306.376 479.275 306.14 479.352C305.903 479.43 305.684 479.642 305.483 479.988L304.427 481.803L303.326 481.327L308.354 472.683L309.455 473.159Z" fill="white"/>
<path d="M287.677 487.327L285.909 489.233C285.637 489.526 285.513 489.781 285.536 489.998C285.56 490.215 285.737 490.437 286.066 490.664L310.509 507.534C310.839 507.761 311.129 507.861 311.379 507.834C311.63 507.806 311.891 507.646 312.163 507.353L313.931 505.447L314.919 506.128L309.954 511.48L306.909 509.378L306.731 509.496C307.398 510.718 307.718 511.901 307.692 513.045C307.67 514.232 307.228 515.29 306.367 516.219C305.301 517.367 303.876 518.127 302.091 518.499C300.311 518.913 298.394 518.893 296.341 518.439C294.288 517.984 292.343 517.122 290.505 515.853C288.667 514.585 287.265 513.137 286.301 511.509C285.336 509.881 284.879 508.263 284.931 506.655C284.988 505.091 285.549 503.735 286.614 502.586C287.498 501.633 288.635 501.015 290.024 500.73C291.44 500.465 292.812 500.49 294.139 500.805L294.234 500.63L283.617 493.303C283.288 493.076 282.998 492.976 282.748 493.003C282.497 493.031 282.236 493.191 281.964 493.484L280.195 495.39L279.208 494.709L286.69 486.645L287.677 487.327ZM288.141 502.978C287.03 504.176 286.945 505.6 287.887 507.253C288.829 508.905 290.699 510.697 293.498 512.628C296.296 514.559 298.733 515.74 300.809 516.17C302.884 516.601 304.477 516.218 305.588 515.02C306.269 514.287 306.59 513.407 306.554 512.38C306.517 511.352 306.134 510.286 305.404 509.181C304.679 508.119 303.699 507.163 302.464 506.311L298.678 503.698C297.444 502.846 296.133 502.221 294.746 501.825C293.363 501.472 292.087 501.393 290.916 501.587C289.746 501.781 288.821 502.245 288.141 502.978Z" fill="white"/>
<path d="M269.051 531.932L268.296 532.422L264.147 530.453C260.555 529.048 257.557 529.126 255.152 530.687C253.866 531.522 253.157 532.415 253.024 533.367C252.885 534.362 253.243 535.349 254.098 536.328C254.602 536.906 255.303 537.258 256.201 537.383C257.092 537.551 258.064 537.511 259.116 537.26L265.409 535.889C267.401 535.462 269.17 535.356 270.717 535.571C272.263 535.787 273.562 536.498 274.614 537.703C275.951 539.235 276.428 540.735 276.045 542.203C275.663 543.672 274.66 544.932 273.039 545.985C272.228 546.511 271.364 546.876 270.445 547.079C269.521 547.324 268.679 547.438 267.919 547.421C266.953 547.418 266.316 547.517 266.009 547.716C265.645 547.952 265.619 548.324 265.93 548.83L266.503 549.638L265.749 550.128L260.751 544.402L261.506 543.912L263.244 544.849C265.136 545.863 266.866 546.314 268.432 546.202C269.971 546.108 271.257 545.725 272.292 545.054C273.326 544.382 273.971 543.59 274.225 542.677C274.501 541.789 274.278 540.931 273.555 540.102C272.919 539.374 272.071 538.98 271.012 538.921C269.946 538.904 268.654 539.055 267.135 539.372L261.127 540.617C259.346 540.986 257.803 541.025 256.496 540.732C255.211 540.465 254.01 539.69 252.892 538.41C251.423 536.727 250.87 535.139 251.231 533.646C251.614 532.178 252.672 530.881 254.405 529.755C255.439 529.084 256.388 528.665 257.25 528.498C258.112 528.332 259.037 528.263 260.025 528.29C260.43 528.303 260.813 528.29 261.174 528.252C261.535 528.214 261.814 528.132 262.01 528.005C262.681 527.569 262.769 526.843 262.276 525.826L261.786 524.963L262.541 524.473L269.051 531.932Z" fill="white"/>
<path d="M220 547.499C222.902 546.41 225.716 546.47 228.44 547.678C231.133 548.898 233.32 551.175 235.001 554.508C235.961 556.413 236.464 558.331 236.509 560.26C236.569 562.22 236.16 563.948 235.282 565.445C234.388 566.984 233.082 568.075 231.366 568.719C229.462 569.433 227.654 569.527 225.941 569.001C224.229 568.475 222.725 567.553 221.429 566.234C220.117 564.956 219.063 563.529 218.268 561.951C218.103 561.624 218.099 561.36 218.258 561.159C218.431 560.987 218.783 560.802 219.314 560.603L230.971 556.232C229.471 553.255 227.841 551.053 226.081 549.625C224.291 548.208 222.381 547.88 220.353 548.641C218.917 549.179 217.837 550.203 217.114 551.713C216.36 553.235 216.366 555.161 217.133 557.493L216.01 557.914C215.101 555.671 214.989 553.572 215.674 551.616C216.342 549.702 217.784 548.33 220 547.499ZM222.429 560.709C223.629 563.09 224.97 564.977 226.451 566.368C227.932 567.759 229.421 568.174 230.919 567.612C232.511 567.015 233.308 565.725 233.31 563.742C233.296 561.801 232.697 559.655 231.511 557.303L222.429 560.709Z" fill="white"/>
<path d="M347.664 397.866C347.664 320.605 273.889 257.973 182.882 257.973" stroke="#BFBFBF" stroke-width="2"/>
<path d="M32.457 420.984C32.457 498.245 106.232 560.877 197.238 560.877" stroke="#BFBFBF" stroke-width="2"/>
<path d="M55.0957 396.146C54.6574 399.215 53.2598 401.579 50.9029 403.238C48.5507 404.864 45.5184 405.48 41.806 405.086C39.6846 404.86 37.7713 404.238 36.066 403.22C34.3276 402.197 33.0152 400.902 32.1287 399.334C31.2138 397.729 30.886 396.02 31.1452 394.205C31.4327 392.192 32.2153 390.6 33.4929 389.429C34.7706 388.259 36.2947 387.483 38.0653 387.101C39.8075 386.683 41.557 386.568 43.3138 386.754C43.6784 386.793 43.9105 386.935 44.0101 387.18C44.0765 387.422 44.0697 387.823 43.9896 388.384L42.2292 400.709C45.5439 401.061 48.2451 400.879 50.3327 400.163C52.425 399.413 53.6244 397.966 53.9307 395.822C54.1475 394.304 53.7701 392.823 52.7985 391.38C51.8316 389.904 50.1476 388.854 47.7466 388.23L47.9163 387.042C50.3077 387.497 52.1929 388.552 53.5719 390.206C54.9224 391.823 55.4304 393.803 55.0957 396.146ZM42.4074 390.979C39.7557 390.698 37.4688 390.806 35.5468 391.306C33.6247 391.805 32.5506 392.847 32.3243 394.431C32.084 396.113 32.8283 397.499 34.5572 398.587C36.2578 399.639 38.4173 400.304 41.0359 400.582L42.4074 390.979Z" fill="white"/>
<path d="M59.0182 371.235L59.9495 368.807C60.0927 368.434 60.1141 368.146 60.0135 367.945C59.9129 367.744 59.6703 367.588 59.2857 367.478L29.4757 358.972C29.091 358.862 28.7887 358.862 28.5687 358.972C28.3488 359.082 28.1672 359.324 28.0239 359.697L27.0926 362.124L25.9387 361.795L28.5534 354.98L60.5751 364.117C60.9598 364.227 61.2621 364.227 61.4821 364.117C61.702 364.007 61.8836 363.766 62.0269 363.392L62.9582 360.965L64.1121 361.294L60.1721 371.564L59.0182 371.235Z" fill="white"/>
<path d="M44.3941 334.739C44.0254 335.373 43.4859 335.806 42.7756 336.04C42.0653 336.274 41.3737 336.245 40.7006 335.954C39.997 335.649 39.5567 335.188 39.3799 334.571C39.1724 333.94 39.253 333.308 39.6217 332.674C40.0072 332.011 40.5467 331.577 41.2403 331.372C41.92 331.126 42.6116 331.154 43.3153 331.459C43.9883 331.75 44.4285 332.211 44.636 332.842C44.8603 333.444 44.7796 334.076 44.3941 334.739ZM67.545 349.841L68.6009 348.026C68.8021 347.68 68.8681 347.402 68.7989 347.192C68.7297 346.981 68.5116 346.797 68.1445 346.638L51.441 339.411C51.0739 339.252 50.772 339.211 50.5352 339.289C50.2984 339.367 50.0795 339.579 49.8784 339.925L48.8225 341.74L47.7211 341.263L51.1403 335.386L69.9546 343.526C70.3217 343.685 70.6237 343.725 70.8604 343.648C71.0972 343.57 71.3161 343.358 71.5173 343.012L72.5732 341.197L73.6745 341.673L68.6464 350.317L67.545 349.841Z" fill="white"/>
<path d="M89.3227 335.673L91.0911 333.767C91.3632 333.474 91.4873 333.219 91.4635 333.002C91.4397 332.785 91.2632 332.563 90.934 332.336L66.4905 315.466C66.1613 315.239 65.8714 315.139 65.6209 315.166C65.3703 315.194 65.109 315.354 64.837 315.647L63.0685 317.553L62.0809 316.872L67.0462 311.52L70.0913 313.622L70.2685 313.504C69.6019 312.282 69.2819 311.099 69.3084 309.955C69.3302 308.768 69.7718 307.71 70.6334 306.781C71.699 305.633 73.1242 304.873 74.9089 304.501C76.6889 304.087 78.6055 304.107 80.6584 304.561C82.7114 305.016 84.657 305.878 86.495 307.147C88.3331 308.415 89.7345 309.863 90.6992 311.491C91.6639 313.119 92.1205 314.737 92.0688 316.345C92.0123 317.909 91.4513 319.265 90.3857 320.414C89.5015 321.367 88.365 321.985 86.9764 322.27C85.5602 322.535 84.1883 322.51 82.8606 322.195L82.7657 322.37L93.3826 329.697C93.7118 329.924 94.0017 330.024 94.2522 329.997C94.5028 329.969 94.7641 329.809 95.0361 329.516L96.8046 327.61L97.7922 328.291L90.3103 336.355L89.3227 335.673ZM88.8594 320.022C89.9703 318.824 90.0548 317.4 89.1127 315.747C88.1707 314.095 86.3005 312.303 83.5023 310.372C80.704 308.441 78.2671 307.26 76.1914 306.83C74.1157 306.399 72.5224 306.782 71.4115 307.98C70.7313 308.713 70.4096 309.593 70.4463 310.62C70.4831 311.648 70.8664 312.714 71.5962 313.819C72.3213 314.881 73.3011 315.837 74.5356 316.689L78.3215 319.302C79.556 320.154 80.8669 320.779 82.2542 321.175C83.6368 321.528 84.9133 321.607 86.0836 321.413C87.254 321.219 88.1792 320.755 88.8594 320.022Z" fill="white"/>
<path d="M107.949 291.068L108.704 290.578L112.853 292.547C116.445 293.952 119.443 293.874 121.848 292.313C123.134 291.478 123.843 290.585 123.976 289.633C124.115 288.638 123.757 287.651 122.902 286.672C122.398 286.094 121.697 285.742 120.799 285.617C119.907 285.449 118.936 285.489 117.884 285.74L111.591 287.111C109.599 287.538 107.83 287.644 106.283 287.429C104.737 287.213 103.438 286.502 102.386 285.297C101.049 283.765 100.572 282.265 100.955 280.797C101.337 279.328 102.34 278.068 103.961 277.015C104.772 276.489 105.636 276.124 106.555 275.921C107.479 275.676 108.321 275.562 109.081 275.579C110.047 275.582 110.684 275.483 110.991 275.284C111.355 275.048 111.381 274.676 111.07 274.17L110.497 273.362L111.251 272.872L116.249 278.598L115.494 279.088L113.756 278.151C111.864 277.137 110.134 276.686 108.568 276.798C107.029 276.892 105.743 277.275 104.708 277.946C103.674 278.618 103.029 279.41 102.775 280.323C102.499 281.211 102.722 282.069 103.445 282.898C104.081 283.626 104.929 284.02 105.988 284.079C107.054 284.096 108.346 283.945 109.865 283.628L115.873 282.383C117.654 282.014 119.197 281.975 120.504 282.268C121.789 282.535 122.99 283.31 124.108 284.59C125.577 286.273 126.13 287.861 125.769 289.354C125.386 290.822 124.328 292.119 122.595 293.245C121.561 293.916 120.612 294.335 119.75 294.502C118.888 294.668 117.963 294.737 116.975 294.71C116.57 294.697 116.187 294.71 115.826 294.748C115.464 294.786 115.186 294.868 114.99 294.995C114.319 295.431 114.231 296.157 114.724 297.174L115.214 298.037L114.459 298.527L107.949 291.068Z" fill="white"/>
<path d="M157 275.501C154.098 276.59 151.284 276.53 148.56 275.322C145.867 274.102 143.68 271.825 141.999 268.492C141.039 266.587 140.536 264.67 140.491 262.74C140.431 260.78 140.84 259.052 141.718 257.555C142.612 256.016 143.918 254.925 145.634 254.281C147.538 253.567 149.346 253.473 151.059 253.999C152.771 254.525 154.275 255.447 155.571 256.766C156.883 258.044 157.937 259.471 158.732 261.049C158.897 261.376 158.901 261.64 158.742 261.841C158.569 262.013 158.217 262.198 157.686 262.397L146.029 266.768C147.529 269.745 149.159 271.947 150.919 273.375C152.709 274.792 154.619 275.12 156.647 274.359C158.083 273.821 159.163 272.797 159.886 271.287C160.64 269.765 160.634 267.839 159.867 265.507L160.99 265.086C161.899 267.329 162.011 269.428 161.326 271.384C160.658 273.298 159.216 274.67 157 275.501ZM154.571 262.291C153.371 259.91 152.03 258.023 150.549 256.632C149.068 255.241 147.579 254.826 146.081 255.388C144.489 255.985 143.692 257.275 143.69 259.258C143.704 261.199 144.303 263.345 145.489 265.697L154.571 262.291Z" fill="white"/>
</svg>
