<svg width="1363" height="977" viewBox="0 0 1363 977" fill="none" xmlns="http://www.w3.org/2000/svg">
<path d="M1363 7.57364C848.969 111.398 551.336 115.661 1.90977 7.9483C95.1575 397.586 90.9364 610.599 0 977C550.647 901.074 848.374 903.991 1363 977C1271.45 610.975 1267.79 399.219 1363 7.57364Z" fill="#F1F1F1"/>
<path d="M678 147.5C839.585 147.5 985.801 188.186 1091.57 253.888C1197.37 319.603 1262.5 410.193 1262.5 510C1262.5 609.807 1197.37 700.397 1091.57 766.112C985.801 831.814 839.585 872.5 678 872.5C516.415 872.5 370.199 831.814 264.427 766.112C158.633 700.397 93.5 609.807 93.5 510C93.5 410.193 158.633 319.603 264.427 253.888C370.199 188.186 516.415 147.5 678 147.5Z" stroke="black" stroke-width="3"/>
<rect x="656" y="115" width="584" height="252" fill="#F1F1F1"/>
<rect x="98" y="632" width="625" height="252" fill="#F1F1F1"/>
</svg>
