<svg width="412" height="797" viewBox="0 0 412 797" fill="none" xmlns="http://www.w3.org/2000/svg">
<rect x="1" y="1" width="410" height="795" fill="black" stroke="#BFBFBF" stroke-width="2"/>
<line x1="382.766" y1="577" x2="382.766" y2="248" stroke="white" stroke-width="3"/>
<line x1="30.5" y1="621" x2="30.5" y2="292" stroke="white" stroke-width="3"/>
<line x1="348" y1="445" x2="348" y2="320" stroke="white" stroke-width="2"/>
<line x1="73" y1="564" x2="73" y2="437" stroke="white" stroke-width="2"/>
<path d="M108.06 441.98H109.6L112.75 447.51C115.27 451.943 118.443 454.16 122.27 454.16C123.997 454.16 125.28 453.74 126.12 452.9C126.96 452.013 127.38 451.033 127.38 449.96C127.38 449.027 127.123 448.233 126.61 447.58C126.143 446.88 125.303 446.18 124.09 445.48C122.923 444.733 121.103 443.753 118.63 442.54C115.643 441.093 113.123 439.46 111.07 437.64C109.063 435.82 108.06 433.44 108.06 430.5C108.06 427.607 108.97 425.297 110.79 423.57C112.61 421.843 114.827 420.98 117.44 420.98C119.633 420.98 121.967 421.773 124.44 423.36C125.327 423.92 126.027 424.2 126.54 424.2C127.1 424.2 127.473 423.827 127.66 423.08L128.08 421.68H129.34V432.88H127.8L126.47 430.22C125.21 427.7 123.763 425.81 122.13 424.55C120.497 423.29 118.84 422.66 117.16 422.66C115.9 422.66 114.85 422.963 114.01 423.57C113.217 424.177 112.82 425.157 112.82 426.51C112.82 429.263 115.293 431.807 120.24 434.14C123.273 435.587 125.583 436.87 127.17 437.99C128.803 439.11 129.993 440.323 130.74 441.63C131.487 442.937 131.86 444.547 131.86 446.46C131.86 449.353 130.927 451.64 129.06 453.32C127.24 455 124.953 455.84 122.2 455.84C119.867 455.84 117.44 455.093 114.92 453.6C113.8 452.853 112.96 452.48 112.4 452.48C111.793 452.48 111.257 452.667 110.79 453.04C110.323 453.367 109.997 453.81 109.81 454.37L109.32 455.84H108.06V441.98ZM151.998 469.28H155.918C156.338 469.28 156.618 469.187 156.758 469C156.945 468.86 157.038 468.58 157.038 468.16V451.01L156.618 450.87C155.871 452.41 154.915 453.623 153.748 454.51C152.581 455.397 151.251 455.84 149.758 455.84C147.331 455.84 145.185 455.023 143.318 453.39C141.451 451.71 140.005 449.54 138.978 446.88C137.951 444.22 137.438 441.397 137.438 438.41C137.438 435.47 137.975 432.67 139.048 430.01C140.121 427.303 141.615 425.133 143.528 423.5C145.441 421.82 147.611 420.98 150.038 420.98C151.718 420.98 153.118 421.4 154.238 422.24C155.405 423.08 156.431 424.177 157.318 425.53C157.878 426.417 158.345 427.023 158.718 427.35C159.091 427.677 159.535 427.84 160.048 427.84C160.841 427.84 161.518 427.187 162.078 425.88L164.038 421.82H165.158V468.16C165.158 468.58 165.228 468.86 165.368 469C165.555 469.187 165.858 469.28 166.278 469.28H168.938V470.96H151.998V469.28ZM151.018 453.6C151.858 453.6 152.745 453.04 153.678 451.92C154.611 450.8 155.405 449.073 156.058 446.74C156.711 444.407 157.038 441.56 157.038 438.2C157.038 435.447 156.758 432.927 156.198 430.64C155.638 428.353 154.891 426.557 153.958 425.25C153.071 423.897 152.091 423.22 151.018 423.22C147.938 423.22 146.398 428.283 146.398 438.41C146.398 448.537 147.938 453.6 151.018 453.6ZM186.117 455.84C184.95 455.84 183.947 455.7 183.107 455.42C182.267 455.187 181.474 454.813 180.727 454.3C179.56 453.46 178.627 452.293 177.927 450.8C177.274 449.307 176.947 447.767 176.947 446.18V424.62C176.947 424.2 176.854 423.92 176.667 423.78C176.527 423.593 176.247 423.5 175.827 423.5H172.467V421.82H185.067V448.21C185.067 451.803 186.14 453.6 188.287 453.6C189.267 453.6 190.294 452.947 191.367 451.64C192.44 450.333 193.327 448.607 194.027 446.46C194.774 444.313 195.147 442.027 195.147 439.6V424.62C195.147 424.2 195.054 423.92 194.867 423.78C194.727 423.593 194.447 423.5 194.027 423.5H190.667V421.82H203.267V452.2C203.267 452.62 203.337 452.923 203.477 453.11C203.664 453.25 203.967 453.32 204.387 453.32H207.047V455H195.147V448.77L194.797 448.7C193.864 450.893 192.65 452.643 191.157 453.95C189.71 455.21 188.03 455.84 186.117 455.84ZM221.733 455.84C219.167 455.84 216.973 455.21 215.153 453.95C213.38 452.69 212.493 450.567 212.493 447.58C212.493 444.547 213.59 442.167 215.783 440.44C218.023 438.667 220.847 437.197 224.253 436.03L229.433 434.21V429.45C229.433 427.07 228.943 425.343 227.963 424.27C226.983 423.197 225.723 422.66 224.183 422.66C222.877 422.66 221.733 422.963 220.753 423.57C219.82 424.13 219.353 424.923 219.353 425.95C219.353 426.23 219.423 426.58 219.563 427C219.75 427.373 220.053 427.7 220.473 427.98C221.173 428.4 221.663 428.843 221.943 429.31C222.27 429.777 222.433 430.383 222.433 431.13C222.433 432.25 222.013 433.137 221.173 433.79C220.38 434.397 219.493 434.7 218.513 434.7C217.3 434.7 216.25 434.303 215.363 433.51C214.523 432.67 214.103 431.48 214.103 429.94C214.103 428.167 214.64 426.603 215.713 425.25C216.787 423.85 218.163 422.8 219.843 422.1C221.523 421.353 223.227 420.98 224.953 420.98C228.313 420.98 231.253 421.89 233.773 423.71C236.293 425.483 237.553 428.33 237.553 432.25V449.96C237.553 451.64 238.02 452.48 238.953 452.48C239.793 452.48 240.423 451.78 240.843 450.38C241.263 448.98 241.473 447.37 241.473 445.55H243.433C243.433 448.957 242.92 451.453 241.893 453.04C241.38 453.88 240.657 454.557 239.723 455.07C238.79 455.583 237.717 455.84 236.503 455.84C234.59 455.84 233.143 455.56 232.163 455C231.183 454.393 230.367 453.413 229.713 452.06H229.573C227.707 454.58 225.093 455.84 221.733 455.84ZM225.163 453.04C226.983 453.04 228.407 452.013 229.433 449.96V436.1L225.513 437.5C223.973 438.06 222.83 439.133 222.083 440.72C221.383 442.26 221.033 444.337 221.033 446.95C221.033 449.237 221.453 450.823 222.293 451.71C223.133 452.597 224.09 453.04 225.163 453.04ZM247.62 453.32H250.28C250.7 453.32 250.98 453.25 251.12 453.11C251.307 452.923 251.4 452.62 251.4 452.2V424.62C251.4 424.2 251.307 423.92 251.12 423.78C250.98 423.593 250.7 423.5 250.28 423.5H247.62V421.82H259.52V428.75L259.87 428.82C260.617 426.673 261.667 424.83 263.02 423.29C264.42 421.75 265.96 420.98 267.64 420.98C269.32 420.98 270.697 421.587 271.77 422.8C272.844 424.013 273.38 425.553 273.38 427.42C273.38 429.147 272.89 430.64 271.91 431.9C270.93 433.113 269.717 433.72 268.27 433.72C267.01 433.72 265.937 433.347 265.05 432.6C264.164 431.807 263.72 430.85 263.72 429.73C263.72 428.61 264.28 427.397 265.4 426.09C266.054 425.343 266.38 424.807 266.38 424.48C266.38 424.013 266.124 423.78 265.61 423.78C264.677 423.78 263.72 424.457 262.74 425.81C261.807 427.163 261.037 428.937 260.43 431.13C259.824 433.323 259.52 435.657 259.52 438.13V452.2C259.52 452.62 259.59 452.923 259.73 453.11C259.917 453.25 260.22 453.32 260.64 453.32H262.88V455H247.62V453.32ZM293.442 455.84C290.549 455.84 287.959 455.07 285.672 453.53C283.432 451.943 281.682 449.82 280.422 447.16C279.162 444.5 278.532 441.583 278.532 438.41C278.532 435.143 279.162 432.18 280.422 429.52C281.682 426.86 283.385 424.783 285.532 423.29C287.725 421.75 290.105 420.98 292.672 420.98C295.519 420.98 297.969 422.007 300.022 424.06C302.075 426.067 303.429 428.727 304.082 432.04C304.409 433.533 304.572 435.867 304.572 439.04H287.492C287.492 441.28 287.539 443.053 287.632 444.36C287.725 445.62 287.935 446.857 288.262 448.07C288.682 449.797 289.475 451.173 290.642 452.2C291.855 453.227 293.255 453.74 294.842 453.74C297.129 453.74 298.972 452.737 300.372 450.73C301.772 448.723 302.612 446.367 302.892 443.66H304.712C304.432 446.88 303.382 449.727 301.562 452.2C299.742 454.627 297.035 455.84 293.442 455.84ZM296.452 437.08C296.452 432.18 296.125 428.563 295.472 426.23C294.865 423.85 293.699 422.66 291.972 422.66C290.245 422.66 289.055 423.85 288.402 426.23C287.795 428.563 287.492 432.18 287.492 437.08H296.452Z" fill="white"/>
<path d="M21.2 250.98H22.46L25.05 256.51C27.57 260.943 30.8367 263.16 34.85 263.16C36.9967 263.16 38.5833 262.647 39.61 261.62C40.6833 260.547 41.22 259.1 41.22 257.28C41.22 256.207 40.8 255.25 39.96 254.41C39.1667 253.523 38.0933 252.823 36.74 252.31L28.76 249.09C26.24 248.063 24.2567 246.827 22.81 245.38C21.3633 243.933 20.64 242.09 20.64 239.85C20.64 237.003 21.5267 234.857 23.3 233.41C25.0733 231.963 27.3133 231.24 30.02 231.24C31.3733 231.24 32.6333 231.473 33.8 231.94C35.0133 232.36 36.0167 232.873 36.81 233.48C37.8367 234.227 38.6067 234.6 39.12 234.6C39.7267 234.6 40.1 234.18 40.24 233.34L40.38 231.94H41.64V242.58H40.38L39.4 240.13C38.3267 237.47 36.9033 235.603 35.13 234.53C33.4033 233.457 31.6767 232.92 29.95 232.92C28.2233 232.92 26.8 233.363 25.68 234.25C24.56 235.09 24 236.28 24 237.82C24 239.173 24.5367 240.293 25.61 241.18C26.73 242.02 28.2467 242.837 30.16 243.63L37.72 246.78C39.96 247.713 41.64 248.857 42.76 250.21C43.88 251.517 44.44 253.36 44.44 255.74C44.44 258.867 43.5533 261.177 41.78 262.67C40.0067 264.117 37.6733 264.84 34.78 264.84C33.0533 264.84 31.6533 264.607 30.58 264.14C29.5067 263.673 28.4567 263.043 27.43 262.25C27.01 261.923 26.59 261.643 26.17 261.41C25.75 261.177 25.3767 261.06 25.05 261.06C23.93 261.06 23.16 261.853 22.74 263.44L22.46 264.84H21.2V250.98ZM66.2516 278.42H69.8916C70.4516 278.42 70.8482 278.303 71.0816 278.07C71.3149 277.837 71.4316 277.44 71.4316 276.88V258.82L71.1516 258.75C70.4516 260.43 69.3782 261.877 67.9316 263.09C66.4849 264.257 64.8516 264.84 63.0316 264.84C60.8382 264.84 58.7849 264.117 56.8716 262.67C55.0049 261.177 53.5116 259.147 52.3916 256.58C51.2716 254.013 50.7116 251.167 50.7116 248.04C50.7116 244.913 51.2716 242.067 52.3916 239.5C53.5116 236.933 55.0049 234.927 56.8716 233.48C58.7849 231.987 60.8382 231.24 63.0316 231.24C64.8982 231.24 66.6249 231.87 68.2116 233.13C69.7982 234.39 71.0582 236.047 71.9916 238.1H72.2716L75.2116 232.08H76.4716V276.88C76.4716 277.44 76.5882 277.837 76.8216 278.07C77.0549 278.303 77.4516 278.42 78.0116 278.42H81.6516V280.1H66.2516V278.42ZM63.8016 262.88C65.2016 262.88 66.4849 262.367 67.6516 261.34C68.8182 260.313 69.7282 258.913 70.3816 257.14C71.0816 255.32 71.4316 253.36 71.4316 251.26V244.82C71.4316 242.72 71.0816 240.783 70.3816 239.01C69.7282 237.19 68.8182 235.767 67.6516 234.74C66.4849 233.713 65.2016 233.2 63.8016 233.2C61.5149 233.2 59.7882 234.483 58.6216 237.05C57.4549 239.617 56.8716 243.28 56.8716 248.04C56.8716 252.8 57.4549 256.463 58.6216 259.03C59.7882 261.597 61.5149 262.88 63.8016 262.88ZM98.5883 264.84C95.1816 264.84 92.7549 263.79 91.3083 261.69C89.9083 259.59 89.2083 257.07 89.2083 254.13V235.3C89.2083 234.74 89.0916 234.343 88.8583 234.11C88.6249 233.877 88.2283 233.76 87.6683 233.76H84.7283V232.08H94.2483V255.46C94.2483 257.513 94.6449 259.263 95.4383 260.71C96.2783 262.157 97.6783 262.88 99.6383 262.88C101.272 262.88 102.718 262.32 103.978 261.2C105.285 260.033 106.288 258.47 106.988 256.51C107.735 254.503 108.108 252.287 108.108 249.86V235.3C108.108 234.74 107.992 234.343 107.758 234.11C107.525 233.877 107.128 233.76 106.568 233.76H103.628V232.08H113.148V260.78C113.148 261.34 113.265 261.737 113.498 261.97C113.732 262.203 114.128 262.32 114.688 262.32H117.628V264H108.108V258.26L107.828 258.19C106.755 260.43 105.425 262.11 103.838 263.23C102.252 264.303 100.502 264.84 98.5883 264.84ZM132.201 264.84C129.728 264.84 127.581 264.233 125.761 263.02C123.988 261.807 123.101 259.66 123.101 256.58C123.101 254.2 123.708 252.333 124.921 250.98C126.134 249.627 127.534 248.67 129.121 248.11C130.754 247.503 132.714 246.99 135.001 246.57L141.441 245.38V239.43C141.441 235.09 139.271 232.92 134.931 232.92C133.344 232.92 131.898 233.34 130.591 234.18C129.284 234.973 128.631 235.883 128.631 236.91C128.631 237.377 128.701 237.727 128.841 237.96C128.934 238.1 129.074 238.24 129.261 238.38C129.494 238.52 129.704 238.613 129.891 238.66C130.731 238.893 131.361 239.22 131.781 239.64C132.248 240.06 132.481 240.643 132.481 241.39C132.481 242.37 132.178 243.07 131.571 243.49C131.011 243.91 130.288 244.12 129.401 244.12C128.374 244.12 127.441 243.723 126.601 242.93C125.761 242.137 125.341 240.993 125.341 239.5C125.341 237.773 125.808 236.28 126.741 235.02C127.721 233.76 128.958 232.827 130.451 232.22C131.991 231.567 133.554 231.24 135.141 231.24C138.221 231.24 140.881 232.057 143.121 233.69C145.361 235.277 146.481 237.773 146.481 241.18V258.4C146.481 260.733 147.204 261.9 148.651 261.9C149.818 261.9 150.658 261.223 151.171 259.87C151.684 258.517 151.941 256.86 151.941 254.9H153.201C153.201 257.7 152.781 260.057 151.941 261.97C151.148 263.883 149.701 264.84 147.601 264.84C145.594 264.84 144.078 264.257 143.051 263.09C142.071 261.877 141.534 260.22 141.441 258.12L141.091 257.98C140.391 259.613 139.248 261.177 137.661 262.67C136.121 264.117 134.301 264.84 132.201 264.84ZM133.321 262.32C135.421 262.32 137.054 261.503 138.221 259.87C139.434 258.19 140.508 256.067 141.441 253.5V246.85L135.351 248.18C133.111 248.647 131.478 249.58 130.451 250.98C129.471 252.333 128.981 254.27 128.981 256.79C128.981 258.937 129.424 260.407 130.311 261.2C131.198 261.947 132.201 262.32 133.321 262.32ZM157.131 262.32H160.071C160.631 262.32 161.027 262.203 161.261 261.97C161.494 261.737 161.611 261.34 161.611 260.78V235.3C161.611 234.74 161.494 234.343 161.261 234.11C161.027 233.877 160.631 233.76 160.071 233.76H157.131V232.08H166.651V239.08L166.931 239.15C167.911 236.723 169.171 234.81 170.711 233.41C172.297 231.963 173.977 231.24 175.751 231.24C177.524 231.24 178.971 231.753 180.091 232.78C181.211 233.807 181.771 235.207 181.771 236.98C181.771 238.007 181.397 239.01 180.651 239.99C179.951 240.97 179.041 241.46 177.921 241.46C177.034 241.46 176.287 241.227 175.681 240.76C175.074 240.293 174.771 239.64 174.771 238.8C174.771 237.82 175.237 236.98 176.171 236.28C176.591 236 176.894 235.743 177.081 235.51C177.314 235.277 177.431 234.973 177.431 234.6C177.431 234.18 177.221 233.853 176.801 233.62C176.427 233.34 175.891 233.2 175.191 233.2C173.744 233.2 172.344 233.9 170.991 235.3C169.684 236.7 168.634 238.52 167.841 240.76C167.047 243 166.651 245.333 166.651 247.76V260.78C166.651 261.34 166.767 261.737 167.001 261.97C167.234 262.203 167.631 262.32 168.191 262.32H171.131V264H157.131V262.32ZM200.962 264.84C196.622 264.84 193.122 263.37 190.462 260.43C187.848 257.49 186.542 253.407 186.542 248.18C186.542 245.193 187.125 242.417 188.292 239.85C189.458 237.237 191.068 235.16 193.122 233.62C195.222 232.033 197.555 231.24 200.122 231.24C202.968 231.24 205.302 232.01 207.122 233.55C208.942 235.09 210.248 237.05 211.042 239.43C211.882 241.763 212.302 244.167 212.302 246.64C212.302 247.153 212.138 247.503 211.812 247.69C211.485 247.83 210.925 247.9 210.132 247.9H192.702C192.702 252.567 193.355 256.277 194.662 259.03C196.015 261.783 198.208 263.16 201.242 263.16C203.388 263.16 205.395 262.343 207.262 260.71C209.175 259.077 210.388 256.533 210.902 253.08H212.582C212.302 256.487 211.112 259.31 209.012 261.55C206.958 263.743 204.275 264.84 200.962 264.84ZM206.282 246.22C206.282 242.487 205.792 239.337 204.812 236.77C203.832 234.203 202.222 232.92 199.982 232.92C197.602 232.92 195.782 234.227 194.522 236.84C193.308 239.407 192.702 242.533 192.702 246.22H206.282Z" fill="white"/>
<path d="M380.8 613.02H379.54L376.95 607.49C374.43 603.057 371.163 600.84 367.15 600.84C365.003 600.84 363.417 601.353 362.39 602.38C361.317 603.453 360.78 604.9 360.78 606.72C360.78 607.793 361.2 608.75 362.04 609.59C362.833 610.477 363.907 611.177 365.26 611.69L373.24 614.91C375.76 615.937 377.743 617.173 379.19 618.62C380.637 620.067 381.36 621.91 381.36 624.15C381.36 626.997 380.473 629.143 378.7 630.59C376.927 632.037 374.687 632.76 371.98 632.76C370.627 632.76 369.367 632.527 368.2 632.06C366.987 631.64 365.983 631.127 365.19 630.52C364.163 629.773 363.393 629.4 362.88 629.4C362.273 629.4 361.9 629.82 361.76 630.66L361.62 632.06H360.36V621.42H361.62L362.6 623.87C363.673 626.53 365.097 628.397 366.87 629.47C368.597 630.543 370.323 631.08 372.05 631.08C373.777 631.08 375.2 630.637 376.32 629.75C377.44 628.91 378 627.72 378 626.18C378 624.827 377.463 623.707 376.39 622.82C375.27 621.98 373.753 621.163 371.84 620.37L364.28 617.22C362.04 616.287 360.36 615.143 359.24 613.79C358.12 612.483 357.56 610.64 357.56 608.26C357.56 605.133 358.447 602.823 360.22 601.33C361.993 599.883 364.327 599.16 367.22 599.16C368.947 599.16 370.347 599.393 371.42 599.86C372.493 600.327 373.543 600.957 374.57 601.75C374.99 602.077 375.41 602.357 375.83 602.59C376.25 602.823 376.623 602.94 376.95 602.94C378.07 602.94 378.84 602.147 379.26 600.56L379.54 599.16H380.8V613.02ZM335.748 585.58H332.108C331.548 585.58 331.152 585.697 330.918 585.93C330.685 586.163 330.568 586.56 330.568 587.12V605.18L330.848 605.25C331.548 603.57 332.622 602.123 334.068 600.91C335.515 599.743 337.148 599.16 338.968 599.16C341.162 599.16 343.215 599.883 345.128 601.33C346.995 602.823 348.488 604.853 349.608 607.42C350.728 609.987 351.288 612.833 351.288 615.96C351.288 619.087 350.728 621.933 349.608 624.5C348.488 627.067 346.995 629.073 345.128 630.52C343.215 632.013 341.162 632.76 338.968 632.76C337.102 632.76 335.375 632.13 333.788 630.87C332.202 629.61 330.942 627.953 330.008 625.9H329.728L326.788 631.92H325.528V587.12C325.528 586.56 325.412 586.163 325.178 585.93C324.945 585.697 324.548 585.58 323.988 585.58H320.348V583.9H335.748V585.58ZM338.198 601.12C336.798 601.12 335.515 601.633 334.348 602.66C333.182 603.687 332.272 605.087 331.618 606.86C330.918 608.68 330.568 610.64 330.568 612.74V619.18C330.568 621.28 330.918 623.217 331.618 624.99C332.272 626.81 333.182 628.233 334.348 629.26C335.515 630.287 336.798 630.8 338.198 630.8C340.485 630.8 342.212 629.517 343.378 626.95C344.545 624.383 345.128 620.72 345.128 615.96C345.128 611.2 344.545 607.537 343.378 604.97C342.212 602.403 340.485 601.12 338.198 601.12ZM303.412 599.16C306.818 599.16 309.245 600.21 310.692 602.31C312.092 604.41 312.792 606.93 312.792 609.87V628.7C312.792 629.26 312.908 629.657 313.142 629.89C313.375 630.123 313.772 630.24 314.332 630.24H317.272V631.92H307.752V608.54C307.752 606.487 307.355 604.737 306.562 603.29C305.722 601.843 304.322 601.12 302.362 601.12C300.728 601.12 299.282 601.68 298.022 602.8C296.715 603.967 295.712 605.53 295.012 607.49C294.265 609.497 293.892 611.713 293.892 614.14V628.7C293.892 629.26 294.008 629.657 294.242 629.89C294.475 630.123 294.872 630.24 295.432 630.24H298.372V631.92H288.852V603.22C288.852 602.66 288.735 602.263 288.502 602.03C288.268 601.797 287.872 601.68 287.312 601.68H284.372V600H293.892V605.74L294.172 605.81C295.245 603.57 296.575 601.89 298.162 600.77C299.748 599.697 301.498 599.16 303.412 599.16ZM269.799 599.16C272.272 599.16 274.419 599.767 276.239 600.98C278.012 602.193 278.899 604.34 278.899 607.42C278.899 609.8 278.292 611.667 277.079 613.02C275.866 614.373 274.466 615.33 272.879 615.89C271.246 616.497 269.286 617.01 266.999 617.43L260.559 618.62V624.57C260.559 628.91 262.729 631.08 267.069 631.08C268.656 631.08 270.102 630.66 271.409 629.82C272.716 629.027 273.369 628.117 273.369 627.09C273.369 626.623 273.299 626.273 273.159 626.04C273.066 625.9 272.926 625.76 272.739 625.62C272.506 625.48 272.296 625.387 272.109 625.34C271.269 625.107 270.639 624.78 270.219 624.36C269.752 623.94 269.519 623.357 269.519 622.61C269.519 621.63 269.822 620.93 270.429 620.51C270.989 620.09 271.712 619.88 272.599 619.88C273.626 619.88 274.559 620.277 275.399 621.07C276.239 621.863 276.659 623.007 276.659 624.5C276.659 626.227 276.192 627.72 275.259 628.98C274.279 630.24 273.042 631.173 271.549 631.78C270.009 632.433 268.446 632.76 266.859 632.76C263.779 632.76 261.119 631.943 258.879 630.31C256.639 628.723 255.519 626.227 255.519 622.82V605.6C255.519 603.267 254.796 602.1 253.349 602.1C252.182 602.1 251.342 602.777 250.829 604.13C250.316 605.483 250.059 607.14 250.059 609.1H248.799C248.799 606.3 249.219 603.943 250.059 602.03C250.852 600.117 252.299 599.16 254.399 599.16C256.406 599.16 257.922 599.743 258.949 600.91C259.929 602.123 260.466 603.78 260.559 605.88L260.909 606.02C261.609 604.387 262.752 602.823 264.339 601.33C265.879 599.883 267.699 599.16 269.799 599.16ZM268.679 601.68C266.579 601.68 264.946 602.497 263.779 604.13C262.566 605.81 261.492 607.933 260.559 610.5V617.15L266.649 615.82C268.889 615.353 270.522 614.42 271.549 613.02C272.529 611.667 273.019 609.73 273.019 607.21C273.019 605.063 272.576 603.593 271.689 602.8C270.802 602.053 269.799 601.68 268.679 601.68ZM244.869 601.68H241.929C241.369 601.68 240.973 601.797 240.739 602.03C240.506 602.263 240.389 602.66 240.389 603.22V628.7C240.389 629.26 240.506 629.657 240.739 629.89C240.973 630.123 241.369 630.24 241.929 630.24H244.869V631.92H235.349V624.92L235.069 624.85C234.089 627.277 232.829 629.19 231.289 630.59C229.703 632.037 228.023 632.76 226.249 632.76C224.476 632.76 223.029 632.247 221.909 631.22C220.789 630.193 220.229 628.793 220.229 627.02C220.229 625.993 220.603 624.99 221.349 624.01C222.049 623.03 222.959 622.54 224.079 622.54C224.966 622.54 225.713 622.773 226.319 623.24C226.926 623.707 227.229 624.36 227.229 625.2C227.229 626.18 226.763 627.02 225.829 627.72C225.409 628 225.106 628.257 224.919 628.49C224.686 628.723 224.569 629.027 224.569 629.4C224.569 629.82 224.779 630.147 225.199 630.38C225.573 630.66 226.109 630.8 226.809 630.8C228.256 630.8 229.656 630.1 231.009 628.7C232.316 627.3 233.366 625.48 234.159 623.24C234.953 621 235.349 618.667 235.349 616.24V603.22C235.349 602.66 235.233 602.263 234.999 602.03C234.766 601.797 234.369 601.68 233.809 601.68H230.869V600H244.869V601.68ZM201.038 599.16C205.378 599.16 208.878 600.63 211.538 603.57C214.152 606.51 215.458 610.593 215.458 615.82C215.458 618.807 214.875 621.583 213.708 624.15C212.542 626.763 210.932 628.84 208.878 630.38C206.778 631.967 204.445 632.76 201.878 632.76C199.032 632.76 196.698 631.99 194.878 630.45C193.058 628.91 191.752 626.95 190.958 624.57C190.118 622.237 189.698 619.833 189.698 617.36C189.698 616.847 189.862 616.497 190.188 616.31C190.515 616.17 191.075 616.1 191.868 616.1H209.298C209.298 611.433 208.645 607.723 207.338 604.97C205.985 602.217 203.792 600.84 200.758 600.84C198.612 600.84 196.605 601.657 194.738 603.29C192.825 604.923 191.612 607.467 191.098 610.92H189.418C189.698 607.513 190.888 604.69 192.988 602.45C195.042 600.257 197.725 599.16 201.038 599.16ZM195.718 617.78C195.718 621.513 196.208 624.663 197.188 627.23C198.168 629.797 199.778 631.08 202.018 631.08C204.398 631.08 206.218 629.773 207.478 627.16C208.692 624.593 209.298 621.467 209.298 617.78H195.718Z" fill="white"/>
<line x1="237" y1="244.5" x2="385" y2="244.5" stroke="white" stroke-width="3"/>
<line x1="31" y1="617.5" x2="179" y2="617.5" stroke="white" stroke-width="3"/>
<path d="M72.84 420.4V419.32L77.58 417.1C81.38 414.94 83.28 412.14 83.28 408.7C83.28 406.86 82.84 405.5 81.96 404.62C81.04 403.7 79.8 403.24 78.24 403.24C77.32 403.24 76.5 403.6 75.78 404.32C75.02 405 74.42 405.92 73.98 407.08L71.22 413.92C70.34 416.08 69.28 417.78 68.04 419.02C66.8 420.26 65.22 420.88 63.3 420.88C60.86 420.88 59.02 420.12 57.78 418.6C56.54 417.08 55.92 415.16 55.92 412.84C55.92 411.68 56.12 410.6 56.52 409.6C56.88 408.56 57.32 407.7 57.84 407.02C58.48 406.14 58.8 405.48 58.8 405.04C58.8 404.52 58.44 404.2 57.72 404.08L56.52 403.96V402.88H65.64V403.96L63.54 404.8C61.26 405.72 59.66 406.94 58.74 408.46C57.82 409.94 57.36 411.42 57.36 412.9C57.36 414.38 57.74 415.6 58.5 416.56C59.22 417.52 60.24 418 61.56 418C62.72 418 63.68 417.54 64.44 416.62C65.16 415.66 65.86 414.36 66.54 412.72L69.24 406.24C70.04 404.32 71.02 402.88 72.18 401.92C73.3 400.96 74.88 400.48 76.92 400.48C79.6 400.48 81.58 401.24 82.86 402.76C84.1 404.28 84.72 406.28 84.72 408.76C84.72 410.24 84.52 411.44 84.12 412.36C83.72 413.28 83.18 414.18 82.5 415.06C82.22 415.42 81.98 415.78 81.78 416.14C81.58 416.5 81.48 416.82 81.48 417.1C81.48 418.06 82.16 418.72 83.52 419.08L84.72 419.32V420.4H72.84ZM96.36 381.784V378.664C96.36 378.184 96.26 377.844 96.06 377.644C95.86 377.444 95.52 377.344 95.04 377.344H79.56L79.5 377.584C80.94 378.184 82.18 379.104 83.22 380.344C84.22 381.584 84.72 382.984 84.72 384.544C84.72 386.424 84.1 388.184 82.86 389.824C81.58 391.424 79.84 392.704 77.64 393.664C75.44 394.624 73 395.104 70.32 395.104C67.64 395.104 65.2 394.624 63 393.664C60.8 392.704 59.08 391.424 57.84 389.824C56.56 388.184 55.92 386.424 55.92 384.544C55.92 382.944 56.46 381.464 57.54 380.104C58.62 378.744 60.04 377.664 61.8 376.864V376.624L56.64 374.104V373.024H95.04C95.52 373.024 95.86 372.924 96.06 372.724C96.26 372.524 96.36 372.184 96.36 371.704V368.584H97.8V381.784H96.36ZM83.04 383.884C83.04 382.684 82.6 381.584 81.72 380.584C80.84 379.584 79.64 378.804 78.12 378.244C76.56 377.644 74.88 377.344 73.08 377.344H67.56C65.76 377.344 64.1 377.644 62.58 378.244C61.02 378.804 59.8 379.584 58.92 380.584C58.04 381.584 57.6 382.684 57.6 383.884C57.6 385.844 58.7 387.324 60.9 388.324C63.1 389.324 66.24 389.824 70.32 389.824C74.4 389.824 77.54 389.324 79.74 388.324C81.94 387.324 83.04 385.844 83.04 383.884ZM84.72 354.067C84.72 356.987 83.82 359.067 82.02 360.307C80.22 361.507 78.06 362.107 75.54 362.107H59.4C58.92 362.107 58.58 362.207 58.38 362.407C58.18 362.607 58.08 362.947 58.08 363.427V365.947H56.64V357.787H76.68C78.44 357.787 79.94 357.447 81.18 356.767C82.42 356.047 83.04 354.847 83.04 353.167C83.04 351.767 82.56 350.527 81.6 349.447C80.6 348.327 79.26 347.467 77.58 346.867C75.86 346.227 73.96 345.907 71.88 345.907H59.4C58.92 345.907 58.58 346.007 58.38 346.207C58.18 346.407 58.08 346.747 58.08 347.227V349.747H56.64V341.587H81.24C81.72 341.587 82.06 341.487 82.26 341.287C82.46 341.087 82.56 340.747 82.56 340.267V337.747H84V345.907H79.08L79.02 346.147C80.94 347.067 82.38 348.207 83.34 349.567C84.26 350.927 84.72 352.427 84.72 354.067Z" fill="white"/>
<path d="M61.56 335.72C59.44 335.72 57.6 335.2 56.04 334.16C54.52 333.12 53.76 331.28 53.76 328.64C53.76 326.6 54.28 325 55.32 323.84C56.36 322.68 57.56 321.86 58.92 321.38C60.32 320.86 62 320.42 63.96 320.06L69.48 319.04V313.94C69.48 310.22 67.62 308.36 63.9 308.36C62.54 308.36 61.3 308.72 60.18 309.44C59.06 310.12 58.5 310.9 58.5 311.78C58.5 312.18 58.56 312.48 58.68 312.68C58.76 312.8 58.88 312.92 59.04 313.04C59.24 313.16 59.42 313.24 59.58 313.28C60.3 313.48 60.84 313.76 61.2 314.12C61.6 314.48 61.8 314.98 61.8 315.62C61.8 316.46 61.54 317.06 61.02 317.42C60.54 317.78 59.92 317.96 59.16 317.96C58.28 317.96 57.48 317.62 56.76 316.94C56.04 316.26 55.68 315.28 55.68 314C55.68 312.52 56.08 311.24 56.88 310.16C57.72 309.08 58.78 308.28 60.06 307.76C61.38 307.2 62.72 306.92 64.08 306.92C66.72 306.92 69 307.62 70.92 309.02C72.84 310.38 73.8 312.52 73.8 315.44V330.2C73.8 332.2 74.42 333.2 75.66 333.2C76.66 333.2 77.38 332.62 77.82 331.46C78.26 330.3 78.48 328.88 78.48 327.2H79.56C79.56 329.6 79.2 331.62 78.48 333.26C77.8 334.9 76.56 335.72 74.76 335.72C73.04 335.72 71.74 335.22 70.86 334.22C70.02 333.18 69.56 331.76 69.48 329.96L69.18 329.84C68.58 331.24 67.6 332.58 66.24 333.86C64.92 335.1 63.36 335.72 61.56 335.72ZM62.52 333.56C64.32 333.56 65.72 332.86 66.72 331.46C67.76 330.02 68.68 328.2 69.48 326V320.3L64.26 321.44C62.34 321.84 60.94 322.64 60.06 323.84C59.22 325 58.8 326.66 58.8 328.82C58.8 330.66 59.18 331.92 59.94 332.6C60.7 333.24 61.56 333.56 62.52 333.56ZM82.9284 333.56H85.4484C85.9284 333.56 86.2684 333.46 86.4684 333.26C86.6684 333.06 86.7684 332.72 86.7684 332.24V310.4C86.7684 309.92 86.6684 309.58 86.4684 309.38C86.2684 309.18 85.9284 309.08 85.4484 309.08H82.9284V307.64H91.0884V313.64L91.3284 313.7C92.1684 311.62 93.2484 309.98 94.5684 308.78C95.9284 307.54 97.3684 306.92 98.8884 306.92C100.408 306.92 101.648 307.36 102.608 308.24C103.568 309.12 104.048 310.32 104.048 311.84C104.048 312.72 103.728 313.58 103.088 314.42C102.488 315.26 101.708 315.68 100.748 315.68C99.9884 315.68 99.3484 315.48 98.8284 315.08C98.3084 314.68 98.0484 314.12 98.0484 313.4C98.0484 312.56 98.4484 311.84 99.2484 311.24C99.6084 311 99.8684 310.78 100.028 310.58C100.228 310.38 100.328 310.12 100.328 309.8C100.328 309.44 100.148 309.16 99.7884 308.96C99.4684 308.72 99.0084 308.6 98.4084 308.6C97.1684 308.6 95.9684 309.2 94.8084 310.4C93.6884 311.6 92.7884 313.16 92.1084 315.08C91.4284 317 91.0884 319 91.0884 321.08V332.24C91.0884 332.72 91.1884 333.06 91.3884 333.26C91.5884 333.46 91.9284 333.56 92.4084 333.56H94.9284V335H82.9284V333.56ZM120.498 335.72C116.778 335.72 113.778 334.46 111.498 331.94C109.258 329.42 108.138 325.92 108.138 321.44C108.138 318.88 108.638 316.5 109.638 314.3C110.638 312.06 112.018 310.28 113.778 308.96C115.578 307.6 117.578 306.92 119.778 306.92C122.218 306.92 124.218 307.58 125.778 308.9C127.338 310.22 128.458 311.9 129.138 313.94C129.858 315.94 130.218 318 130.218 320.12C130.218 320.56 130.078 320.86 129.798 321.02C129.518 321.14 129.038 321.2 128.358 321.2H113.418C113.418 325.2 113.978 328.38 115.098 330.74C116.258 333.1 118.138 334.28 120.738 334.28C122.578 334.28 124.298 333.58 125.898 332.18C127.538 330.78 128.578 328.6 129.018 325.64H130.458C130.218 328.56 129.198 330.98 127.398 332.9C125.638 334.78 123.338 335.72 120.498 335.72ZM125.058 319.76C125.058 316.56 124.638 313.86 123.798 311.66C122.958 309.46 121.578 308.36 119.658 308.36C117.618 308.36 116.058 309.48 114.978 311.72C113.938 313.92 113.418 316.6 113.418 319.76H125.058Z" fill="white"/>
<path d="M343.16 461.6V462.68L338.42 464.9C334.62 467.06 332.72 469.86 332.72 473.3C332.72 475.14 333.16 476.5 334.04 477.38C334.96 478.3 336.2 478.76 337.76 478.76C338.68 478.76 339.5 478.4 340.22 477.68C340.98 477 341.58 476.08 342.02 474.92L344.78 468.08C345.66 465.92 346.72 464.22 347.96 462.98C349.2 461.74 350.78 461.12 352.7 461.12C355.14 461.12 356.98 461.88 358.22 463.4C359.46 464.92 360.08 466.84 360.08 469.16C360.08 470.32 359.88 471.4 359.48 472.4C359.12 473.44 358.68 474.3 358.16 474.98C357.52 475.86 357.2 476.52 357.2 476.96C357.2 477.48 357.56 477.8 358.28 477.92L359.48 478.04V479.12H350.36V478.04L352.46 477.2C354.74 476.28 356.34 475.06 357.26 473.54C358.18 472.06 358.64 470.58 358.64 469.1C358.64 467.62 358.26 466.4 357.5 465.44C356.78 464.48 355.76 464 354.44 464C353.28 464 352.32 464.46 351.56 465.38C350.84 466.34 350.14 467.64 349.46 469.28L346.76 475.76C345.96 477.68 344.98 479.12 343.82 480.08C342.7 481.04 341.12 481.52 339.08 481.52C336.4 481.52 334.42 480.76 333.14 479.24C331.9 477.72 331.28 475.72 331.28 473.24C331.28 471.76 331.48 470.56 331.88 469.64C332.28 468.72 332.82 467.82 333.5 466.94C333.78 466.58 334.02 466.22 334.22 465.86C334.42 465.5 334.52 465.18 334.52 464.9C334.52 463.94 333.84 463.28 332.48 462.92L331.28 462.68V461.6H343.16ZM319.64 500.216V503.336C319.64 503.816 319.74 504.156 319.94 504.356C320.14 504.556 320.48 504.656 320.96 504.656H336.44L336.5 504.416C335.06 503.816 333.82 502.896 332.78 501.656C331.78 500.416 331.28 499.016 331.28 497.456C331.28 495.576 331.9 493.816 333.14 492.176C334.42 490.576 336.16 489.296 338.36 488.336C340.56 487.376 343 486.896 345.68 486.896C348.36 486.896 350.8 487.376 353 488.336C355.2 489.296 356.92 490.576 358.16 492.176C359.44 493.816 360.08 495.576 360.08 497.456C360.08 499.056 359.54 500.536 358.46 501.896C357.38 503.256 355.96 504.336 354.2 505.136V505.376L359.36 507.896V508.976H320.96C320.48 508.976 320.14 509.076 319.94 509.276C319.74 509.476 319.64 509.816 319.64 510.296V513.416H318.2V500.216H319.64ZM332.96 498.116C332.96 499.316 333.4 500.416 334.28 501.416C335.16 502.416 336.36 503.196 337.88 503.756C339.44 504.356 341.12 504.656 342.92 504.656H348.44C350.24 504.656 351.9 504.356 353.42 503.756C354.98 503.196 356.2 502.416 357.08 501.416C357.96 500.416 358.4 499.316 358.4 498.116C358.4 496.156 357.3 494.676 355.1 493.676C352.9 492.676 349.76 492.176 345.68 492.176C341.6 492.176 338.46 492.676 336.26 493.676C334.06 494.676 332.96 496.156 332.96 498.116ZM331.28 527.933C331.28 525.013 332.18 522.933 333.98 521.693C335.78 520.493 337.94 519.893 340.46 519.893H356.6C357.08 519.893 357.42 519.793 357.62 519.593C357.82 519.393 357.92 519.053 357.92 518.573V516.053H359.36V524.213H339.32C337.56 524.213 336.06 524.553 334.82 525.233C333.58 525.953 332.96 527.153 332.96 528.833C332.96 530.233 333.44 531.473 334.4 532.553C335.4 533.673 336.74 534.533 338.42 535.133C340.14 535.773 342.04 536.093 344.12 536.093H356.6C357.08 536.093 357.42 535.993 357.62 535.793C357.82 535.593 357.92 535.253 357.92 534.773V532.253H359.36V540.413H334.76C334.28 540.413 333.94 540.513 333.74 540.713C333.54 540.913 333.44 541.253 333.44 541.733V544.253H332V536.093H336.92L336.98 535.853C335.06 534.933 333.62 533.793 332.66 532.433C331.74 531.073 331.28 529.573 331.28 527.933Z" fill="white"/>
<path d="M354.44 546.28C356.56 546.28 358.4 546.8 359.96 547.84C361.48 548.88 362.24 550.72 362.24 553.36C362.24 555.4 361.72 557 360.68 558.16C359.64 559.32 358.44 560.14 357.08 560.62C355.68 561.14 354 561.58 352.04 561.94L346.52 562.96V568.06C346.52 571.78 348.38 573.64 352.1 573.64C353.46 573.64 354.7 573.28 355.82 572.56C356.94 571.88 357.5 571.1 357.5 570.22C357.5 569.82 357.44 569.52 357.32 569.32C357.24 569.2 357.12 569.08 356.96 568.96C356.76 568.84 356.58 568.76 356.42 568.72C355.7 568.52 355.16 568.24 354.8 567.88C354.4 567.52 354.2 567.02 354.2 566.38C354.2 565.54 354.46 564.94 354.98 564.58C355.46 564.22 356.08 564.04 356.84 564.04C357.72 564.04 358.52 564.38 359.24 565.06C359.96 565.74 360.32 566.72 360.32 568C360.32 569.48 359.92 570.76 359.12 571.84C358.28 572.92 357.22 573.72 355.94 574.24C354.62 574.8 353.28 575.08 351.92 575.08C349.28 575.08 347 574.38 345.08 572.98C343.16 571.62 342.2 569.48 342.2 566.56V551.8C342.2 549.8 341.58 548.8 340.34 548.8C339.34 548.8 338.62 549.38 338.18 550.54C337.74 551.7 337.52 553.12 337.52 554.8H336.44C336.44 552.4 336.8 550.38 337.52 548.74C338.2 547.1 339.44 546.28 341.24 546.28C342.96 546.28 344.26 546.78 345.14 547.78C345.98 548.82 346.44 550.24 346.52 552.04L346.82 552.16C347.42 550.76 348.4 549.42 349.76 548.14C351.08 546.9 352.64 546.28 354.44 546.28ZM353.48 548.44C351.68 548.44 350.28 549.14 349.28 550.54C348.24 551.98 347.32 553.8 346.52 556V561.7L351.74 560.56C353.66 560.16 355.06 559.36 355.94 558.16C356.78 557 357.2 555.34 357.2 553.18C357.2 551.34 356.82 550.08 356.06 549.4C355.3 548.76 354.44 548.44 353.48 548.44ZM333.072 548.44H330.552C330.072 548.44 329.732 548.54 329.532 548.74C329.332 548.94 329.232 549.28 329.232 549.76V571.6C329.232 572.08 329.332 572.42 329.532 572.62C329.732 572.82 330.072 572.92 330.552 572.92H333.072V574.36H324.912V568.36L324.672 568.3C323.832 570.38 322.752 572.02 321.432 573.22C320.072 574.46 318.632 575.08 317.112 575.08C315.592 575.08 314.352 574.64 313.392 573.76C312.432 572.88 311.952 571.68 311.952 570.16C311.952 569.28 312.272 568.42 312.912 567.58C313.512 566.74 314.292 566.32 315.252 566.32C316.012 566.32 316.652 566.52 317.172 566.92C317.692 567.32 317.952 567.88 317.952 568.6C317.952 569.44 317.552 570.16 316.752 570.76C316.392 571 316.132 571.22 315.972 571.42C315.772 571.62 315.672 571.88 315.672 572.2C315.672 572.56 315.852 572.84 316.212 573.04C316.532 573.28 316.992 573.4 317.592 573.4C318.832 573.4 320.032 572.8 321.192 571.6C322.312 570.4 323.212 568.84 323.892 566.92C324.572 565 324.912 563 324.912 560.92V549.76C324.912 549.28 324.812 548.94 324.612 548.74C324.412 548.54 324.072 548.44 323.592 548.44H321.072V547H333.072V548.44ZM295.502 546.28C299.222 546.28 302.222 547.54 304.502 550.06C306.742 552.58 307.862 556.08 307.862 560.56C307.862 563.12 307.362 565.5 306.362 567.7C305.362 569.94 303.982 571.72 302.222 573.04C300.422 574.4 298.422 575.08 296.222 575.08C293.782 575.08 291.782 574.42 290.222 573.1C288.662 571.78 287.542 570.1 286.862 568.06C286.142 566.06 285.782 564 285.782 561.88C285.782 561.44 285.922 561.14 286.202 560.98C286.482 560.86 286.962 560.8 287.642 560.8H302.582C302.582 556.8 302.022 553.62 300.902 551.26C299.742 548.9 297.862 547.72 295.262 547.72C293.422 547.72 291.702 548.42 290.102 549.82C288.462 551.22 287.422 553.4 286.982 556.36H285.542C285.782 553.44 286.802 551.02 288.602 549.1C290.362 547.22 292.662 546.28 295.502 546.28ZM290.942 562.24C290.942 565.44 291.362 568.14 292.202 570.34C293.042 572.54 294.422 573.64 296.342 573.64C298.382 573.64 299.942 572.52 301.022 570.28C302.062 568.08 302.582 565.4 302.582 562.24H290.942Z" fill="white"/>
<line x1="163" y1="318" x2="350" y2="318" stroke="white" stroke-width="2"/>
<line x1="72.9949" y1="563" x2="270.995" y2="562" stroke="white" stroke-width="2"/>
<path d="M87.52 759.04H89.2C89.52 759.04 89.7467 758.973 89.88 758.84C90.0133 758.707 90.08 758.48 90.08 758.16V743.6C90.08 743.28 90.0133 743.053 89.88 742.92C89.7467 742.787 89.52 742.72 89.2 742.72H87.52V741.76H96.88C98.56 741.76 99.92 742.16 100.96 742.96C102.027 743.76 102.56 744.827 102.56 746.16C102.56 747.36 102.16 748.307 101.36 749C100.587 749.667 99.7067 750.107 98.72 750.32V750.4C99.2533 750.453 99.8933 750.653 100.64 751C101.387 751.32 102.04 751.813 102.6 752.48C103.16 753.147 103.44 753.973 103.44 754.96C103.44 756.48 102.813 757.707 101.56 758.64C100.333 759.547 98.88 760 97.2 760H87.52V759.04ZM96.32 750C97.4133 750 98.2133 749.653 98.72 748.96C99.2533 748.267 99.52 747.387 99.52 746.32C99.52 745.28 99.2267 744.427 98.64 743.76C98.0533 743.067 97.3067 742.72 96.4 742.72H93.84C93.52 742.72 93.2933 742.787 93.16 742.92C93.0267 743.053 92.96 743.28 92.96 743.6V750H96.32ZM96.72 759.04C97.7867 759.04 98.5867 758.64 99.12 757.84C99.6533 757.013 99.92 756.053 99.92 754.96C99.92 753.787 99.6533 752.827 99.12 752.08C98.5867 751.333 97.76 750.96 96.64 750.96H92.96V758.16C92.96 758.48 93.0267 758.707 93.16 758.84C93.2933 758.973 93.52 759.04 93.84 759.04H96.72ZM132.15 760.48C130.87 760.48 129.963 760.133 129.43 759.44C128.923 758.72 128.643 757.6 128.59 756.08C128.536 754.213 128.323 752.893 127.95 752.12C127.603 751.347 126.936 750.96 125.95 750.96H123.39V758.16C123.39 758.48 123.456 758.707 123.59 758.84C123.723 758.973 123.95 759.04 124.27 759.04H125.95V760H117.95V759.04H119.63C119.95 759.04 120.176 758.973 120.31 758.84C120.443 758.707 120.51 758.48 120.51 758.16V743.64C120.51 743.32 120.443 743.093 120.31 742.96C120.176 742.827 119.95 742.76 119.63 742.76H117.95V741.8H125.95V742.76H124.27C123.95 742.76 123.723 742.827 123.59 742.96C123.456 743.093 123.39 743.32 123.39 743.64V750H125.99C126.87 750 127.483 749.493 127.83 748.48C128.203 747.44 128.443 746.173 128.55 744.68C128.63 743.533 128.936 742.68 129.47 742.12C130.03 741.56 130.683 741.28 131.43 741.28C132.31 741.28 132.963 741.573 133.39 742.16C133.843 742.747 134.07 743.4 134.07 744.12C134.07 744.84 133.856 745.427 133.43 745.88C133.003 746.333 132.496 746.56 131.91 746.56C131.376 746.56 130.963 746.413 130.67 746.12C130.376 745.827 130.23 745.467 130.23 745.04C130.23 744.8 130.296 744.573 130.43 744.36C130.563 744.12 130.71 743.947 130.87 743.84C131.163 743.627 131.31 743.4 131.31 743.16C131.31 742.787 131.096 742.6 130.67 742.6C130.35 742.6 130.07 742.787 129.83 743.16C129.616 743.507 129.496 744 129.47 744.64C129.39 746 129.176 747.24 128.83 748.36C128.483 749.48 127.923 750.173 127.15 750.44V750.56C128.83 751.04 130.056 751.773 130.83 752.76C131.203 753.213 131.47 753.76 131.63 754.4C131.79 755.04 131.91 755.787 131.99 756.64C132.07 757.387 132.19 757.973 132.35 758.4C132.536 758.827 132.83 759.04 133.23 759.04C133.87 759.04 134.296 758.653 134.51 757.88C134.723 757.107 134.83 756.293 134.83 755.44H135.55C135.55 756.693 135.31 757.853 134.83 758.92C134.376 759.96 133.483 760.48 132.15 760.48ZM138.028 759.04H139.708C140.028 759.04 140.254 758.973 140.388 758.84C140.521 758.707 140.588 758.48 140.588 758.16V743.6C140.588 743.28 140.521 743.053 140.388 742.92C140.254 742.787 140.028 742.72 139.708 742.72H138.028V741.76H146.028V742.72H144.348C144.028 742.72 143.801 742.787 143.668 742.92C143.534 743.053 143.468 743.28 143.468 743.6V755.36L151.068 744.64V743.6C151.068 743.28 151.001 743.053 150.868 742.92C150.734 742.787 150.508 742.72 150.188 742.72H148.508V741.76H156.508V742.72H154.828C154.508 742.72 154.281 742.787 154.148 742.92C154.014 743.053 153.948 743.28 153.948 743.6V758.16C153.948 758.48 154.014 758.707 154.148 758.84C154.281 758.973 154.508 759.04 154.828 759.04H156.508V760H148.508V759.04H150.188C150.508 759.04 150.734 758.973 150.868 758.84C151.001 758.707 151.068 758.48 151.068 758.16V746.4L143.468 757.12V758.16C143.468 758.48 143.534 758.707 143.668 758.84C143.801 758.973 144.028 759.04 144.348 759.04H146.028V760H138.028V759.04ZM159.551 759.04H161.231C161.551 759.04 161.778 758.973 161.911 758.84C162.045 758.707 162.111 758.48 162.111 758.16V743.6C162.111 743.28 162.045 743.053 161.911 742.92C161.778 742.787 161.551 742.72 161.231 742.72H159.551V741.76H167.551V742.72H165.871C165.551 742.72 165.325 742.787 165.191 742.92C165.058 743.053 164.991 743.28 164.991 743.6V750H172.991V743.6C172.991 743.28 172.925 743.053 172.791 742.92C172.658 742.787 172.431 742.72 172.111 742.72H170.431V741.76H178.431V742.72H176.751C176.431 742.72 176.205 742.787 176.071 742.92C175.938 743.053 175.871 743.28 175.871 743.6V758.16C175.871 758.48 175.938 758.707 176.071 758.84C176.205 758.973 176.431 759.04 176.751 759.04H178.431V760H170.431V759.04H172.111C172.431 759.04 172.658 758.973 172.791 758.84C172.925 758.707 172.991 758.48 172.991 758.16V750.96H164.991V758.16C164.991 758.48 165.058 758.707 165.191 758.84C165.325 758.973 165.551 759.04 165.871 759.04H167.551V760H159.551V759.04ZM189.865 760.48C188.399 760.48 187.052 760.053 185.825 759.2C184.599 758.32 183.625 757.147 182.905 755.68C182.212 754.213 181.865 752.613 181.865 750.88C181.865 749.147 182.212 747.547 182.905 746.08C183.625 744.613 184.599 743.453 185.825 742.6C187.052 741.72 188.399 741.28 189.865 741.28C191.332 741.28 192.679 741.72 193.905 742.6C195.132 743.453 196.092 744.613 196.785 746.08C197.505 747.547 197.865 749.147 197.865 750.88C197.865 752.613 197.505 754.213 196.785 755.68C196.092 757.147 195.132 758.32 193.905 759.2C192.679 760.053 191.332 760.48 189.865 760.48ZM189.865 759.52C191.465 759.52 192.612 758.773 193.305 757.28C193.999 755.76 194.345 753.627 194.345 750.88C194.345 748.133 193.999 746.013 193.305 744.52C192.612 743 191.465 742.24 189.865 742.24C188.265 742.24 187.119 743 186.425 744.52C185.732 746.013 185.385 748.133 185.385 750.88C185.385 753.627 185.732 755.76 186.425 757.28C187.119 758.773 188.265 759.52 189.865 759.52ZM220.76 760.48C219.213 760.48 217.84 760.053 216.64 759.2C215.467 758.347 214.547 757.187 213.88 755.72C213.24 754.253 212.92 752.64 212.92 750.88C212.92 749.12 213.253 747.507 213.92 746.04C214.587 744.573 215.507 743.413 216.68 742.56C217.88 741.707 219.24 741.28 220.76 741.28C221.987 741.28 223.053 741.547 223.96 742.08C224.867 742.587 225.56 743.253 226.04 744.08C226.52 744.88 226.76 745.693 226.76 746.52C226.76 747.347 226.547 748 226.12 748.48C225.693 748.933 225.173 749.16 224.56 749.16C224.027 749.16 223.573 748.987 223.2 748.64C222.853 748.293 222.68 747.88 222.68 747.4C222.68 746.92 222.813 746.52 223.08 746.2C223.347 745.88 223.667 745.667 224.04 745.56C224.467 745.427 224.68 745.187 224.68 744.84C224.68 744.52 224.533 744.16 224.24 743.76C223.973 743.36 223.547 743.013 222.96 742.72C222.373 742.4 221.64 742.24 220.76 742.24C219.08 742.24 217.933 742.96 217.32 744.4C216.733 745.84 216.44 748 216.44 750.88C216.44 753.76 216.733 755.92 217.32 757.36C217.907 758.8 219.053 759.52 220.76 759.52C222.387 759.52 223.64 758.947 224.52 757.8C225.4 756.653 225.933 755.307 226.12 753.76H227.08C227 754.853 226.72 755.92 226.24 756.96C225.76 757.973 225.053 758.813 224.12 759.48C223.187 760.147 222.067 760.48 220.76 760.48ZM249.513 760.64C247.619 760.64 246.086 760 244.913 758.72C244.513 758.24 244.219 757.707 244.033 757.12C243.873 756.533 243.793 756.013 243.793 755.56C243.793 754.627 244.126 753.867 244.793 753.28C245.273 752.88 245.819 752.68 246.433 752.68C247.046 752.68 247.526 752.92 247.873 753.4C248.006 753.587 248.086 753.76 248.113 753.92C248.166 754.08 248.193 754.293 248.193 754.56C248.193 754.96 248.019 755.36 247.673 755.76C247.433 756.027 247.179 756.253 246.913 756.44C246.673 756.6 246.499 756.773 246.393 756.96C246.313 757.12 246.273 757.32 246.273 757.56C246.273 758.04 246.539 758.467 247.073 758.84C247.633 759.187 248.473 759.36 249.593 759.36C250.553 759.36 251.459 759.08 252.313 758.52C253.193 757.96 253.926 757.027 254.513 755.72C254.966 754.733 255.313 753.493 255.553 752C255.793 750.48 255.913 749.227 255.913 748.24V746.44L255.633 746.32C255.153 747.333 254.406 748.173 253.393 748.84C252.406 749.48 251.446 749.8 250.513 749.8C248.726 749.8 247.219 749.36 245.993 748.48C244.953 747.733 244.153 746.733 243.593 745.48C243.033 744.2 242.753 742.84 242.753 741.4C242.753 739.96 243.073 738.52 243.713 737.08C244.353 735.613 245.286 734.4 246.513 733.44C247.766 732.48 249.233 732 250.913 732C252.646 732 254.166 732.533 255.473 733.6C256.806 734.667 257.833 736.2 258.553 738.2C259.273 740.173 259.633 742.507 259.633 745.2C259.633 747.387 259.353 749.533 258.793 751.64C258.233 753.747 257.419 755.493 256.353 756.88C254.406 759.387 252.126 760.64 249.513 760.64ZM250.433 748.32C251.366 748.32 252.206 748.013 252.953 747.4C253.699 746.787 254.286 745.92 254.713 744.8C255.166 743.653 255.393 742.347 255.393 740.88C255.393 738.667 255.046 736.853 254.353 735.44C253.659 734 252.513 733.28 250.913 733.28C249.286 733.28 248.099 734.053 247.353 735.6C246.633 737.147 246.273 738.907 246.273 740.88C246.273 743.013 246.593 744.787 247.233 746.2C247.873 747.613 248.939 748.32 250.433 748.32ZM268.436 760.48C267.716 760.48 267.116 760.253 266.636 759.8C266.183 759.32 265.956 758.72 265.956 758C265.956 757.28 266.183 756.693 266.636 756.24C267.116 755.76 267.716 755.52 268.436 755.52C269.156 755.52 269.743 755.76 270.196 756.24C270.676 756.693 270.916 757.28 270.916 758C270.916 758.72 270.676 759.32 270.196 759.8C269.743 760.253 269.156 760.48 268.436 760.48ZM285.647 760.64C283.754 760.64 282.074 759.96 280.607 758.6C279.14 757.24 277.994 755.467 277.167 753.28C276.367 751.067 275.967 748.747 275.967 746.32C275.967 743.893 276.367 741.587 277.167 739.4C277.994 737.187 279.14 735.4 280.607 734.04C282.074 732.68 283.754 732 285.647 732C287.514 732 289.18 732.68 290.647 734.04C292.14 735.4 293.287 737.187 294.087 739.4C294.914 741.587 295.327 743.893 295.327 746.32C295.327 748.747 294.914 751.067 294.087 753.28C293.287 755.467 292.14 757.24 290.647 758.6C289.18 759.96 287.514 760.64 285.647 760.64ZM285.647 759.36C287.86 759.36 289.314 758.107 290.007 755.6C290.727 753.093 291.087 750 291.087 746.32C291.087 742.64 290.727 739.547 290.007 737.04C289.314 734.533 287.86 733.28 285.647 733.28C283.434 733.28 281.967 734.533 281.247 737.04C280.554 739.52 280.207 742.613 280.207 746.32C280.207 750.027 280.554 753.133 281.247 755.64C281.967 758.12 283.434 759.36 285.647 759.36ZM307.13 760.64C305.237 760.64 303.703 760 302.53 758.72C302.13 758.24 301.837 757.707 301.65 757.12C301.49 756.533 301.41 756.013 301.41 755.56C301.41 754.627 301.743 753.867 302.41 753.28C302.89 752.88 303.437 752.68 304.05 752.68C304.663 752.68 305.143 752.92 305.49 753.4C305.623 753.587 305.703 753.76 305.73 753.92C305.783 754.08 305.81 754.293 305.81 754.56C305.81 754.96 305.637 755.36 305.29 755.76C305.05 756.027 304.797 756.253 304.53 756.44C304.29 756.6 304.117 756.773 304.01 756.96C303.93 757.12 303.89 757.32 303.89 757.56C303.89 758.04 304.157 758.467 304.69 758.84C305.25 759.187 306.09 759.36 307.21 759.36C308.17 759.36 309.077 759.08 309.93 758.52C310.81 757.96 311.543 757.027 312.13 755.72C312.583 754.733 312.93 753.493 313.17 752C313.41 750.48 313.53 749.227 313.53 748.24V746.44L313.25 746.32C312.77 747.333 312.023 748.173 311.01 748.84C310.023 749.48 309.063 749.8 308.13 749.8C306.343 749.8 304.837 749.36 303.61 748.48C302.57 747.733 301.77 746.733 301.21 745.48C300.65 744.2 300.37 742.84 300.37 741.4C300.37 739.96 300.69 738.52 301.33 737.08C301.97 735.613 302.903 734.4 304.13 733.44C305.383 732.48 306.85 732 308.53 732C310.263 732 311.783 732.533 313.09 733.6C314.423 734.667 315.45 736.2 316.17 738.2C316.89 740.173 317.25 742.507 317.25 745.2C317.25 747.387 316.97 749.533 316.41 751.64C315.85 753.747 315.037 755.493 313.97 756.88C312.023 759.387 309.743 760.64 307.13 760.64ZM308.05 748.32C308.983 748.32 309.823 748.013 310.57 747.4C311.317 746.787 311.903 745.92 312.33 744.8C312.783 743.653 313.01 742.347 313.01 740.88C313.01 738.667 312.663 736.853 311.97 735.44C311.277 734 310.13 733.28 308.53 733.28C306.903 733.28 305.717 734.053 304.97 735.6C304.25 737.147 303.89 738.907 303.89 740.88C303.89 743.013 304.21 744.787 304.85 746.2C305.49 747.613 306.557 748.32 308.05 748.32Z" fill="white"/>
</svg>
