<svg width="412" height="797" viewBox="0 0 412 797" fill="none" xmlns="http://www.w3.org/2000/svg">
<rect x="1" y="1" width="410" height="795" fill="black" stroke="#BFBFBF" stroke-width="2"/>
<path d="M225.84 530.16C225.84 533.1 225.093 535.387 223.6 537.02C222.06 538.607 219.913 539.4 217.16 539.4H193.78V543.6H191.82C191.447 540.847 190.303 538.677 188.39 537.09C186.477 535.457 183.98 534.64 180.9 534.64H178.38V531.28H191.82V524.14H193.78V531.28H217.65C219.19 531.28 220.427 531.07 221.36 530.65C222.293 530.23 222.76 529.367 222.76 528.06C222.76 526.1 221.43 524.793 218.77 524.14C216.063 523.487 213.053 523.16 209.74 523.16V521.2C212.4 521.2 214.85 521.387 217.09 521.76C219.33 522.087 221.057 522.623 222.27 523.37C224.65 524.863 225.84 527.127 225.84 530.16ZM223.32 516.702V514.042C223.32 513.622 223.25 513.342 223.11 513.202C222.923 513.015 222.62 512.922 222.2 512.922H194.62C194.2 512.922 193.92 513.015 193.78 513.202C193.593 513.342 193.5 513.622 193.5 514.042V516.702H191.82V504.802H198.75L198.82 504.452C196.673 503.705 194.83 502.655 193.29 501.302C191.75 499.902 190.98 498.362 190.98 496.682C190.98 495.002 191.587 493.625 192.8 492.552C194.013 491.479 195.553 490.942 197.42 490.942C199.147 490.942 200.64 491.432 201.9 492.412C203.113 493.392 203.72 494.605 203.72 496.052C203.72 497.312 203.347 498.385 202.6 499.272C201.807 500.159 200.85 500.602 199.73 500.602C198.61 500.602 197.397 500.042 196.09 498.922C195.343 498.269 194.807 497.942 194.48 497.942C194.013 497.942 193.78 498.199 193.78 498.712C193.78 499.645 194.457 500.602 195.81 501.582C197.163 502.515 198.937 503.285 201.13 503.892C203.323 504.499 205.657 504.802 208.13 504.802H222.2C222.62 504.802 222.923 504.732 223.11 504.592C223.25 504.405 223.32 504.102 223.32 503.682V501.442H225V516.702H223.32ZM184.68 478.79C184.68 480.237 184.19 481.474 183.21 482.5C182.183 483.48 180.947 483.97 179.5 483.97C178.007 483.97 176.77 483.48 175.79 482.5C174.81 481.474 174.32 480.237 174.32 478.79C174.32 477.297 174.81 476.06 175.79 475.08C176.77 474.1 178.007 473.61 179.5 473.61C180.947 473.61 182.183 474.1 183.21 475.08C184.19 476.06 184.68 477.297 184.68 478.79ZM223.32 486.35V483.69C223.32 483.27 223.25 482.99 223.11 482.85C222.923 482.664 222.62 482.57 222.2 482.57H194.62C194.2 482.57 193.92 482.664 193.78 482.85C193.593 482.99 193.5 483.27 193.5 483.69V486.35H191.82V474.45H222.2C222.62 474.45 222.923 474.38 223.11 474.24C223.25 474.054 223.32 473.75 223.32 473.33V470.67H225V486.35H223.32ZM225.84 455.977C225.84 458.544 225.21 460.737 223.95 462.557C222.69 464.331 220.567 465.217 217.58 465.217C214.547 465.217 212.167 464.121 210.44 461.927C208.667 459.687 207.197 456.864 206.03 453.457L204.21 448.277H199.45C197.07 448.277 195.343 448.767 194.27 449.747C193.197 450.727 192.66 451.987 192.66 453.527C192.66 454.834 192.963 455.977 193.57 456.957C194.13 457.891 194.923 458.357 195.95 458.357C196.23 458.357 196.58 458.287 197 458.148C197.373 457.961 197.7 457.657 197.98 457.237C198.4 456.537 198.843 456.047 199.31 455.767C199.777 455.441 200.383 455.277 201.13 455.277C202.25 455.277 203.137 455.697 203.79 456.537C204.397 457.331 204.7 458.217 204.7 459.198C204.7 460.411 204.303 461.461 203.51 462.347C202.67 463.187 201.48 463.607 199.94 463.607C198.167 463.607 196.603 463.071 195.25 461.997C193.85 460.924 192.8 459.547 192.1 457.867C191.353 456.187 190.98 454.484 190.98 452.757C190.98 449.397 191.89 446.457 193.71 443.937C195.483 441.417 198.33 440.157 202.25 440.157H219.96C221.64 440.157 222.48 439.691 222.48 438.757C222.48 437.917 221.78 437.287 220.38 436.867C218.98 436.447 217.37 436.237 215.55 436.237V434.277C218.957 434.277 221.453 434.791 223.04 435.817C223.88 436.331 224.557 437.054 225.07 437.987C225.583 438.921 225.84 439.994 225.84 441.207C225.84 443.121 225.56 444.567 225 445.547C224.393 446.527 223.413 447.344 222.06 447.997V448.137C224.58 450.004 225.84 452.617 225.84 455.977ZM223.04 452.547C223.04 450.727 222.013 449.304 219.96 448.277H206.1L207.5 452.197C208.06 453.737 209.133 454.881 210.72 455.627C212.26 456.327 214.337 456.677 216.95 456.677C219.237 456.677 220.823 456.257 221.71 455.417C222.597 454.577 223.04 453.621 223.04 452.547ZM223.32 430.091V427.431C223.32 427.011 223.25 426.731 223.11 426.591C222.923 426.404 222.62 426.311 222.2 426.311H194.62C194.2 426.311 193.92 426.404 193.78 426.591C193.593 426.731 193.5 427.011 193.5 427.431V430.091H191.82V418.191H198.05L198.12 417.841C195.927 416.907 194.2 415.717 192.94 414.271C191.633 412.777 190.98 411.074 190.98 409.161C190.98 407.994 191.12 406.991 191.4 406.151C191.633 405.311 192.007 404.517 192.52 403.771C193.36 402.604 194.527 401.694 196.02 401.041C197.513 400.341 199.053 399.991 200.64 399.991H222.2C222.62 399.991 222.923 399.921 223.11 399.781C223.25 399.594 223.32 399.291 223.32 398.871V396.211H225V411.471H223.32V409.231C223.32 408.811 223.25 408.531 223.11 408.391C222.923 408.204 222.62 408.111 222.2 408.111H198.61C195.017 408.111 193.22 409.184 193.22 411.331C193.22 412.311 193.873 413.337 195.18 414.411C196.487 415.484 198.213 416.394 200.36 417.141C202.507 417.841 204.793 418.191 207.22 418.191H222.2C222.62 418.191 222.923 418.121 223.11 417.981C223.25 417.794 223.32 417.491 223.32 417.071V414.831H225V430.091H223.32ZM241.66 375.514C241.66 379.854 240.89 383.541 239.35 386.574C237.81 389.561 235.687 391.054 232.98 391.054C231.44 391.054 230.017 390.471 228.71 389.304C227.45 388.137 226.587 386.527 226.12 384.474H225.91C225.817 385.874 225.233 387.134 224.16 388.254C223.087 389.374 221.757 389.934 220.17 389.934C215.737 389.934 213.007 387.321 211.98 382.094H211.7C210.907 383.914 209.693 385.524 208.06 386.924C206.427 388.277 204.373 388.954 201.9 388.954C199.8 388.954 197.91 388.371 196.23 387.204C194.55 385.991 193.267 384.427 192.38 382.514C191.447 380.554 190.98 378.454 190.98 376.214C190.98 372.387 192.193 369.144 194.62 366.484V366.274C192.193 364.827 190.98 363.101 190.98 361.094C190.98 359.601 191.447 358.387 192.38 357.454C193.267 356.521 194.34 356.054 195.6 356.054C197 356.054 198.213 356.451 199.24 357.244C200.267 357.991 200.78 358.901 200.78 359.974C200.78 360.721 200.57 361.374 200.15 361.934C199.683 362.494 199.077 362.774 198.33 362.774C197.583 362.774 196.743 362.401 195.81 361.654C195.53 361.374 195.203 361.117 194.83 360.884C194.457 360.651 194.13 360.534 193.85 360.534C193.103 360.534 192.73 361.024 192.73 362.004C192.73 363.264 193.71 364.454 195.67 365.574C197.303 364.081 199.567 363.334 202.46 363.334C204.14 363.334 205.797 363.871 207.43 364.944C209.017 366.017 210.323 367.557 211.35 369.564C212.377 371.524 212.89 373.787 212.89 376.354C212.89 379.201 213.147 381.487 213.66 383.214C214.127 384.941 215.107 385.804 216.6 385.804C218.233 385.804 219.05 384.661 219.05 382.374V371.314C219.05 368.001 219.843 365.247 221.43 363.054C223.017 360.861 225.397 359.764 228.57 359.764C230.903 359.764 233.05 360.394 235.01 361.654C237.017 362.914 238.627 364.734 239.84 367.114C241.053 369.494 241.66 372.294 241.66 375.514ZM211.14 376.074C211.14 374.581 210.417 373.507 208.97 372.854C207.477 372.201 205.12 371.874 201.9 371.874C198.68 371.874 196.347 372.201 194.9 372.854C193.407 373.507 192.66 374.581 192.66 376.074C192.66 377.614 193.407 378.734 194.9 379.434C196.347 380.087 198.68 380.414 201.9 380.414C205.12 380.414 207.477 380.087 208.97 379.434C210.417 378.734 211.14 377.614 211.14 376.074ZM239.42 376.564C239.42 373.344 238.767 370.521 237.46 368.094C236.153 365.667 234.287 364.454 231.86 364.454C230.087 364.454 228.803 365.434 228.01 367.394C227.263 369.354 226.89 371.851 226.89 374.884C226.89 378.477 227.31 381.651 228.15 384.404C229.037 387.157 230.67 388.534 233.05 388.534C235.103 388.534 236.667 387.344 237.74 384.964C238.86 382.537 239.42 379.737 239.42 376.564ZM223.32 353.414V349.494C223.32 349.074 223.25 348.794 223.11 348.654C222.923 348.468 222.62 348.374 222.2 348.374H177.96C177.54 348.374 177.26 348.468 177.12 348.654C176.933 348.794 176.84 349.074 176.84 349.494V353.414H175.16V340.254H222.2C222.62 340.254 222.923 340.184 223.11 340.044C223.25 339.858 223.32 339.554 223.32 339.134V335.214H225V353.414H223.32ZM225.84 315.431C225.84 318.325 225.07 320.915 223.53 323.201C221.943 325.441 219.82 327.191 217.16 328.451C214.5 329.711 211.583 330.341 208.41 330.341C205.143 330.341 202.18 329.711 199.52 328.451C196.86 327.191 194.783 325.488 193.29 323.341C191.75 321.148 190.98 318.768 190.98 316.201C190.98 313.355 192.007 310.905 194.06 308.851C196.067 306.798 198.727 305.445 202.04 304.791C203.533 304.465 205.867 304.301 209.04 304.301V321.381C211.28 321.381 213.053 321.335 214.36 321.241C215.62 321.148 216.857 320.938 218.07 320.611C219.797 320.191 221.173 319.398 222.2 318.231C223.227 317.018 223.74 315.618 223.74 314.031C223.74 311.745 222.737 309.901 220.73 308.501C218.723 307.101 216.367 306.261 213.66 305.981V304.161C216.88 304.441 219.727 305.491 222.2 307.311C224.627 309.131 225.84 311.838 225.84 315.431ZM207.08 312.421C202.18 312.421 198.563 312.748 196.23 313.401C193.85 314.008 192.66 315.175 192.66 316.901C192.66 318.628 193.85 319.818 196.23 320.471C198.563 321.078 202.18 321.381 207.08 321.381V312.421Z" fill="white"/>
<path d="M77.52 759.04H79.2C79.52 759.04 79.7467 758.973 79.88 758.84C80.0133 758.707 80.08 758.48 80.08 758.16V743.6C80.08 743.28 80.0133 743.053 79.88 742.92C79.7467 742.787 79.52 742.72 79.2 742.72H77.52V741.76H86.88C88.56 741.76 89.92 742.16 90.96 742.96C92.0267 743.76 92.56 744.827 92.56 746.16C92.56 747.36 92.16 748.307 91.36 749C90.5867 749.667 89.7067 750.107 88.72 750.32V750.4C89.2533 750.453 89.8933 750.653 90.64 751C91.3867 751.32 92.04 751.813 92.6 752.48C93.16 753.147 93.44 753.973 93.44 754.96C93.44 756.48 92.8133 757.707 91.56 758.64C90.3333 759.547 88.88 760 87.2 760H77.52V759.04ZM86.32 750C87.4133 750 88.2133 749.653 88.72 748.96C89.2533 748.267 89.52 747.387 89.52 746.32C89.52 745.28 89.2267 744.427 88.64 743.76C88.0533 743.067 87.3067 742.72 86.4 742.72H83.84C83.52 742.72 83.2933 742.787 83.16 742.92C83.0267 743.053 82.96 743.28 82.96 743.6V750H86.32ZM86.72 759.04C87.7867 759.04 88.5867 758.64 89.12 757.84C89.6533 757.013 89.92 756.053 89.92 754.96C89.92 753.787 89.6533 752.827 89.12 752.08C88.5867 751.333 87.76 750.96 86.64 750.96H82.96V758.16C82.96 758.48 83.0267 758.707 83.16 758.84C83.2933 758.973 83.52 759.04 83.84 759.04H86.72ZM122.15 760.48C120.87 760.48 119.963 760.133 119.43 759.44C118.923 758.72 118.643 757.6 118.59 756.08C118.536 754.213 118.323 752.893 117.95 752.12C117.603 751.347 116.936 750.96 115.95 750.96H113.39V758.16C113.39 758.48 113.456 758.707 113.59 758.84C113.723 758.973 113.95 759.04 114.27 759.04H115.95V760H107.95V759.04H109.63C109.95 759.04 110.176 758.973 110.31 758.84C110.443 758.707 110.51 758.48 110.51 758.16V743.64C110.51 743.32 110.443 743.093 110.31 742.96C110.176 742.827 109.95 742.76 109.63 742.76H107.95V741.8H115.95V742.76H114.27C113.95 742.76 113.723 742.827 113.59 742.96C113.456 743.093 113.39 743.32 113.39 743.64V750H115.99C116.87 750 117.483 749.493 117.83 748.48C118.203 747.44 118.443 746.173 118.55 744.68C118.63 743.533 118.936 742.68 119.47 742.12C120.03 741.56 120.683 741.28 121.43 741.28C122.31 741.28 122.963 741.573 123.39 742.16C123.843 742.747 124.07 743.4 124.07 744.12C124.07 744.84 123.856 745.427 123.43 745.88C123.003 746.333 122.496 746.56 121.91 746.56C121.376 746.56 120.963 746.413 120.67 746.12C120.376 745.827 120.23 745.467 120.23 745.04C120.23 744.8 120.296 744.573 120.43 744.36C120.563 744.12 120.71 743.947 120.87 743.84C121.163 743.627 121.31 743.4 121.31 743.16C121.31 742.787 121.096 742.6 120.67 742.6C120.35 742.6 120.07 742.787 119.83 743.16C119.616 743.507 119.496 744 119.47 744.64C119.39 746 119.176 747.24 118.83 748.36C118.483 749.48 117.923 750.173 117.15 750.44V750.56C118.83 751.04 120.056 751.773 120.83 752.76C121.203 753.213 121.47 753.76 121.63 754.4C121.79 755.04 121.91 755.787 121.99 756.64C122.07 757.387 122.19 757.973 122.35 758.4C122.536 758.827 122.83 759.04 123.23 759.04C123.87 759.04 124.296 758.653 124.51 757.88C124.723 757.107 124.83 756.293 124.83 755.44H125.55C125.55 756.693 125.31 757.853 124.83 758.92C124.376 759.96 123.483 760.48 122.15 760.48ZM128.028 759.04H129.708C130.028 759.04 130.254 758.973 130.388 758.84C130.521 758.707 130.588 758.48 130.588 758.16V743.6C130.588 743.28 130.521 743.053 130.388 742.92C130.254 742.787 130.028 742.72 129.708 742.72H128.028V741.76H136.028V742.72H134.348C134.028 742.72 133.801 742.787 133.668 742.92C133.534 743.053 133.468 743.28 133.468 743.6V755.36L141.068 744.64V743.6C141.068 743.28 141.001 743.053 140.868 742.92C140.734 742.787 140.508 742.72 140.188 742.72H138.508V741.76H146.508V742.72H144.828C144.508 742.72 144.281 742.787 144.148 742.92C144.014 743.053 143.948 743.28 143.948 743.6V758.16C143.948 758.48 144.014 758.707 144.148 758.84C144.281 758.973 144.508 759.04 144.828 759.04H146.508V760H138.508V759.04H140.188C140.508 759.04 140.734 758.973 140.868 758.84C141.001 758.707 141.068 758.48 141.068 758.16V746.4L133.468 757.12V758.16C133.468 758.48 133.534 758.707 133.668 758.84C133.801 758.973 134.028 759.04 134.348 759.04H136.028V760H128.028V759.04ZM149.551 759.04H151.231C151.551 759.04 151.778 758.973 151.911 758.84C152.045 758.707 152.111 758.48 152.111 758.16V743.6C152.111 743.28 152.045 743.053 151.911 742.92C151.778 742.787 151.551 742.72 151.231 742.72H149.551V741.76H157.551V742.72H155.871C155.551 742.72 155.325 742.787 155.191 742.92C155.058 743.053 154.991 743.28 154.991 743.6V750H162.991V743.6C162.991 743.28 162.925 743.053 162.791 742.92C162.658 742.787 162.431 742.72 162.111 742.72H160.431V741.76H168.431V742.72H166.751C166.431 742.72 166.205 742.787 166.071 742.92C165.938 743.053 165.871 743.28 165.871 743.6V758.16C165.871 758.48 165.938 758.707 166.071 758.84C166.205 758.973 166.431 759.04 166.751 759.04H168.431V760H160.431V759.04H162.111C162.431 759.04 162.658 758.973 162.791 758.84C162.925 758.707 162.991 758.48 162.991 758.16V750.96H154.991V758.16C154.991 758.48 155.058 758.707 155.191 758.84C155.325 758.973 155.551 759.04 155.871 759.04H157.551V760H149.551V759.04ZM179.865 760.48C178.399 760.48 177.052 760.053 175.825 759.2C174.599 758.32 173.625 757.147 172.905 755.68C172.212 754.213 171.865 752.613 171.865 750.88C171.865 749.147 172.212 747.547 172.905 746.08C173.625 744.613 174.599 743.453 175.825 742.6C177.052 741.72 178.399 741.28 179.865 741.28C181.332 741.28 182.679 741.72 183.905 742.6C185.132 743.453 186.092 744.613 186.785 746.08C187.505 747.547 187.865 749.147 187.865 750.88C187.865 752.613 187.505 754.213 186.785 755.68C186.092 757.147 185.132 758.32 183.905 759.2C182.679 760.053 181.332 760.48 179.865 760.48ZM179.865 759.52C181.465 759.52 182.612 758.773 183.305 757.28C183.999 755.76 184.345 753.627 184.345 750.88C184.345 748.133 183.999 746.013 183.305 744.52C182.612 743 181.465 742.24 179.865 742.24C178.265 742.24 177.119 743 176.425 744.52C175.732 746.013 175.385 748.133 175.385 750.88C175.385 753.627 175.732 755.76 176.425 757.28C177.119 758.773 178.265 759.52 179.865 759.52ZM210.76 760.48C209.213 760.48 207.84 760.053 206.64 759.2C205.467 758.347 204.547 757.187 203.88 755.72C203.24 754.253 202.92 752.64 202.92 750.88C202.92 749.12 203.253 747.507 203.92 746.04C204.587 744.573 205.507 743.413 206.68 742.56C207.88 741.707 209.24 741.28 210.76 741.28C211.987 741.28 213.053 741.547 213.96 742.08C214.867 742.587 215.56 743.253 216.04 744.08C216.52 744.88 216.76 745.693 216.76 746.52C216.76 747.347 216.547 748 216.12 748.48C215.693 748.933 215.173 749.16 214.56 749.16C214.027 749.16 213.573 748.987 213.2 748.64C212.853 748.293 212.68 747.88 212.68 747.4C212.68 746.92 212.813 746.52 213.08 746.2C213.347 745.88 213.667 745.667 214.04 745.56C214.467 745.427 214.68 745.187 214.68 744.84C214.68 744.52 214.533 744.16 214.24 743.76C213.973 743.36 213.547 743.013 212.96 742.72C212.373 742.4 211.64 742.24 210.76 742.24C209.08 742.24 207.933 742.96 207.32 744.4C206.733 745.84 206.44 748 206.44 750.88C206.44 753.76 206.733 755.92 207.32 757.36C207.907 758.8 209.053 759.52 210.76 759.52C212.387 759.52 213.64 758.947 214.52 757.8C215.4 756.653 215.933 755.307 216.12 753.76H217.08C217 754.853 216.72 755.92 216.24 756.96C215.76 757.973 215.053 758.813 214.12 759.48C213.187 760.147 212.067 760.48 210.76 760.48ZM234.433 758.72H238.273C238.673 758.72 238.953 758.64 239.113 758.48C239.299 758.32 239.393 758.053 239.393 757.68V738.04H234.433V736.6H236.633C238.073 736.6 239.233 736.213 240.113 735.44C241.019 734.667 241.579 733.733 241.793 732.64H243.073V757.68C243.073 758.053 243.153 758.32 243.313 758.48C243.499 758.64 243.793 758.72 244.193 758.72H248.033V760H234.433V758.72ZM256.156 760C256.156 758.533 256.436 757.08 256.996 755.64C257.556 754.2 258.809 752.653 260.756 751L264.596 747.72C265.849 746.68 266.796 745.533 267.436 744.28C268.103 743.027 268.436 741.587 268.436 739.96C268.436 737.88 267.929 736.28 266.916 735.16C265.903 734.013 264.463 733.44 262.596 733.44C261.743 733.44 260.916 733.64 260.116 734.04C259.343 734.44 258.703 734.973 258.196 735.64C257.716 736.28 257.476 736.947 257.476 737.64C257.476 738.28 257.623 738.76 257.916 739.08C258.209 739.373 258.609 739.56 259.116 739.64C259.969 739.773 260.596 740.067 260.996 740.52C261.423 740.947 261.636 741.467 261.636 742.08C261.636 742.587 261.449 743.013 261.076 743.36C260.729 743.707 260.236 743.88 259.596 743.88C258.503 743.88 257.596 743.453 256.876 742.6C256.156 741.72 255.796 740.573 255.796 739.16C255.796 737.8 256.129 736.573 256.796 735.48C257.489 734.387 258.436 733.533 259.636 732.92C260.863 732.307 262.223 732 263.716 732C265.423 732 266.956 732.32 268.316 732.96C269.676 733.6 270.743 734.52 271.516 735.72C272.289 736.92 272.676 738.333 272.676 739.96C272.676 741.587 272.103 743.053 270.956 744.36C269.809 745.667 268.303 746.987 266.436 748.32L262.516 751.36C261.396 752.133 260.529 752.88 259.916 753.6C259.329 754.293 259.036 755.013 259.036 755.76C259.036 756.4 259.449 756.72 260.276 756.72H267.836C268.903 756.72 269.649 756.493 270.076 756.04C270.529 755.56 270.836 754.893 270.996 754.04L271.436 751.68H272.316L271.756 760H256.156ZM281.639 760.48C280.919 760.48 280.319 760.253 279.839 759.8C279.386 759.32 279.159 758.72 279.159 758C279.159 757.28 279.386 756.693 279.839 756.24C280.319 755.76 280.919 755.52 281.639 755.52C282.359 755.52 282.946 755.76 283.399 756.24C283.879 756.693 284.119 757.28 284.119 758C284.119 758.72 283.879 759.32 283.399 759.8C282.946 760.253 282.359 760.48 281.639 760.48ZM292.05 758.72H295.89C296.29 758.72 296.57 758.64 296.73 758.48C296.917 758.32 297.01 758.053 297.01 757.68V738.04H292.05V736.6H294.25C295.69 736.6 296.85 736.213 297.73 735.44C298.637 734.667 299.197 733.733 299.41 732.64H300.69V757.68C300.69 758.053 300.77 758.32 300.93 758.48C301.117 758.64 301.41 758.72 301.81 758.72H305.65V760H292.05V758.72ZM322.053 760.64C320.16 760.64 318.48 759.96 317.013 758.6C315.546 757.24 314.4 755.467 313.573 753.28C312.773 751.067 312.373 748.747 312.373 746.32C312.373 743.893 312.773 741.587 313.573 739.4C314.4 737.187 315.546 735.4 317.013 734.04C318.48 732.68 320.16 732 322.053 732C323.92 732 325.586 732.68 327.053 734.04C328.546 735.4 329.693 737.187 330.493 739.4C331.32 741.587 331.733 743.893 331.733 746.32C331.733 748.747 331.32 751.067 330.493 753.28C329.693 755.467 328.546 757.24 327.053 758.6C325.586 759.96 323.92 760.64 322.053 760.64ZM322.053 759.36C324.266 759.36 325.72 758.107 326.413 755.6C327.133 753.093 327.493 750 327.493 746.32C327.493 742.64 327.133 739.547 326.413 737.04C325.72 734.533 324.266 733.28 322.053 733.28C319.84 733.28 318.373 734.533 317.653 737.04C316.96 739.52 316.613 742.613 316.613 746.32C316.613 750.027 316.96 753.133 317.653 755.64C318.373 758.12 319.84 759.36 322.053 759.36Z" fill="white"/>
<line x1="331" y1="619" x2="379" y2="619" stroke="white" stroke-width="2"/>
<line x1="28" y1="617" x2="89" y2="617" stroke="white" stroke-width="2"/>
<line y1="-1" x2="218.133" y2="-1" transform="matrix(0.327164 -0.944967 0.979167 0.203055 142.464 312.326)" stroke="white" stroke-width="2"/>
<line y1="-1" x2="123.445" y2="-1" transform="matrix(0.327164 0.944967 -0.979167 0.203055 213.039 106)" stroke="white" stroke-width="2"/>
<path d="M104.42 636.84C102.32 636.84 100.57 636.093 99.17 634.6C97.8167 633.107 97.14 631.077 97.14 628.51V606.04H91.96V604.08H93.5C95.6 604.08 97.2333 602.96 98.4 600.72C99.6133 598.433 100.22 595.913 100.22 593.16V590.64H102.18V604.08H110.86V606.04H102.18V628.86C102.18 630.26 102.46 631.427 103.02 632.36C103.58 633.293 104.537 633.76 105.89 633.76C109.203 633.76 110.86 630.96 110.86 625.36H112.12C112.12 628.487 111.653 631.193 110.72 633.48C109.833 635.72 107.733 636.84 104.42 636.84ZM117.133 634.32H120.073C120.633 634.32 121.029 634.203 121.263 633.97C121.496 633.737 121.613 633.34 121.613 632.78V607.3C121.613 606.74 121.496 606.343 121.263 606.11C121.029 605.877 120.633 605.76 120.073 605.76H117.133V604.08H126.653V611.08L126.933 611.15C127.913 608.723 129.173 606.81 130.713 605.41C132.299 603.963 133.979 603.24 135.753 603.24C137.526 603.24 138.973 603.753 140.093 604.78C141.213 605.807 141.773 607.207 141.773 608.98C141.773 610.007 141.399 611.01 140.653 611.99C139.953 612.97 139.043 613.46 137.923 613.46C137.036 613.46 136.289 613.227 135.683 612.76C135.076 612.293 134.773 611.64 134.773 610.8C134.773 609.82 135.239 608.98 136.173 608.28C136.593 608 136.896 607.743 137.083 607.51C137.316 607.277 137.433 606.973 137.433 606.6C137.433 606.18 137.223 605.853 136.803 605.62C136.429 605.34 135.893 605.2 135.193 605.2C133.746 605.2 132.346 605.9 130.993 607.3C129.686 608.7 128.636 610.52 127.843 612.76C127.049 615 126.653 617.333 126.653 619.76V632.78C126.653 633.34 126.769 633.737 127.003 633.97C127.236 634.203 127.633 634.32 128.193 634.32H131.133V636H117.133V634.32ZM152.424 595.4C151.397 595.4 150.534 595.05 149.834 594.35C149.134 593.65 148.784 592.787 148.784 591.76C148.784 590.687 149.134 589.823 149.834 589.17C150.534 588.47 151.397 588.12 152.424 588.12C153.497 588.12 154.36 588.47 155.014 589.17C155.714 589.823 156.064 590.687 156.064 591.76C156.064 592.787 155.714 593.65 155.014 594.35C154.36 595.05 153.497 595.4 152.424 595.4ZM145.844 634.32H148.784C149.344 634.32 149.74 634.203 149.974 633.97C150.207 633.737 150.324 633.34 150.324 632.78V607.3C150.324 606.74 150.207 606.343 149.974 606.11C149.74 605.877 149.344 605.76 148.784 605.76H145.844V604.08H155.364V632.78C155.364 633.34 155.48 633.737 155.714 633.97C155.947 634.203 156.344 634.32 156.904 634.32H159.844V636H145.844V634.32ZM174.371 636.84C171.897 636.84 169.751 636.233 167.931 635.02C166.157 633.807 165.271 631.66 165.271 628.58C165.271 626.2 165.877 624.333 167.091 622.98C168.304 621.627 169.704 620.67 171.291 620.11C172.924 619.503 174.884 618.99 177.171 618.57L183.611 617.38V611.43C183.611 607.09 181.441 604.92 177.101 604.92C175.514 604.92 174.067 605.34 172.761 606.18C171.454 606.973 170.801 607.883 170.801 608.91C170.801 609.377 170.871 609.727 171.011 609.96C171.104 610.1 171.244 610.24 171.431 610.38C171.664 610.52 171.874 610.613 172.061 610.66C172.901 610.893 173.531 611.22 173.951 611.64C174.417 612.06 174.651 612.643 174.651 613.39C174.651 614.37 174.347 615.07 173.741 615.49C173.181 615.91 172.457 616.12 171.571 616.12C170.544 616.12 169.611 615.723 168.771 614.93C167.931 614.137 167.511 612.993 167.511 611.5C167.511 609.773 167.977 608.28 168.911 607.02C169.891 605.76 171.127 604.827 172.621 604.22C174.161 603.567 175.724 603.24 177.311 603.24C180.391 603.24 183.051 604.057 185.291 605.69C187.531 607.277 188.651 609.773 188.651 613.18V630.4C188.651 632.733 189.374 633.9 190.821 633.9C191.987 633.9 192.827 633.223 193.341 631.87C193.854 630.517 194.111 628.86 194.111 626.9H195.371C195.371 629.7 194.951 632.057 194.111 633.97C193.317 635.883 191.871 636.84 189.771 636.84C187.764 636.84 186.247 636.257 185.221 635.09C184.241 633.877 183.704 632.22 183.611 630.12L183.261 629.98C182.561 631.613 181.417 633.177 179.831 634.67C178.291 636.117 176.471 636.84 174.371 636.84ZM175.491 634.32C177.591 634.32 179.224 633.503 180.391 631.87C181.604 630.19 182.677 628.067 183.611 625.5V618.85L177.521 620.18C175.281 620.647 173.647 621.58 172.621 622.98C171.641 624.333 171.151 626.27 171.151 628.79C171.151 630.937 171.594 632.407 172.481 633.2C173.367 633.947 174.371 634.32 175.491 634.32ZM199.301 634.32H202.241C202.801 634.32 203.197 634.203 203.431 633.97C203.664 633.737 203.781 633.34 203.781 632.78V607.3C203.781 606.74 203.664 606.343 203.431 606.11C203.197 605.877 202.801 605.76 202.241 605.76H199.301V604.08H208.821V609.82L209.101 609.89C210.174 607.65 211.504 605.993 213.091 604.92C214.677 603.8 216.427 603.24 218.341 603.24C221.747 603.24 224.151 604.29 225.551 606.39C226.997 608.49 227.721 611.01 227.721 613.95V632.78C227.721 633.34 227.837 633.737 228.071 633.97C228.304 634.203 228.701 634.32 229.261 634.32H232.201V636H218.201V634.32H221.141C221.701 634.32 222.097 634.203 222.331 633.97C222.564 633.737 222.681 633.34 222.681 632.78V612.62C222.681 610.567 222.261 608.817 221.421 607.37C220.627 605.923 219.251 605.2 217.291 605.2C215.657 605.2 214.187 605.783 212.881 606.95C211.621 608.07 210.617 609.633 209.871 611.64C209.171 613.6 208.821 615.793 208.821 618.22V632.78C208.821 633.34 208.937 633.737 209.171 633.97C209.404 634.203 209.801 634.32 210.361 634.32H213.301V636H199.301V634.32ZM253.203 652.66C249.097 652.66 245.55 652.007 242.563 650.7C239.577 649.393 238.083 647.34 238.083 644.54C238.083 642.813 238.76 641.297 240.113 639.99C241.467 638.683 243.077 637.89 244.943 637.61V637.4C240.837 636.513 238.783 634.787 238.783 632.22C238.783 630.307 239.507 628.813 240.953 627.74C242.447 626.62 244.267 625.873 246.413 625.5V625.29C244.453 624.45 242.773 623.19 241.373 621.51C240.02 619.783 239.343 617.52 239.343 614.72C239.343 612.34 239.927 610.287 241.093 608.56C242.26 606.833 243.777 605.527 245.643 604.64C247.557 603.707 249.61 603.24 251.803 603.24C253.157 603.24 254.487 603.473 255.793 603.94C257.147 604.36 258.29 604.873 259.223 605.48C260.203 606.04 260.833 606.507 261.113 606.88C261.533 605.667 262.21 604.757 263.143 604.15C264.077 603.543 265.01 603.24 265.943 603.24C267.53 603.24 268.837 603.707 269.863 604.64C270.89 605.573 271.403 606.787 271.403 608.28C271.403 609.4 271.123 610.31 270.563 611.01C270.05 611.71 269.35 612.06 268.463 612.06C267.717 612.06 267.063 611.873 266.503 611.5C265.943 611.08 265.663 610.427 265.663 609.54C265.663 608.513 266.06 607.767 266.853 607.3C267.133 607.113 267.32 606.95 267.413 606.81C267.553 606.623 267.623 606.367 267.623 606.04C267.623 605.667 267.437 605.387 267.063 605.2C266.69 605.013 266.247 604.92 265.733 604.92C264.893 604.92 264.123 605.27 263.423 605.97C262.77 606.623 262.397 607.393 262.303 608.28C263.61 610.1 264.263 612.247 264.263 614.72C264.263 617.053 263.703 619.107 262.583 620.88C261.463 622.607 259.947 623.937 258.033 624.87C256.167 625.757 254.09 626.2 251.803 626.2C249.143 626.2 246.763 626.573 244.663 627.32C242.61 628.02 241.583 629.21 241.583 630.89C241.583 631.777 241.98 632.383 242.773 632.71C243.567 633.037 244.663 633.2 246.063 633.2C247.043 633.2 247.837 633.177 248.443 633.13C249.003 633.083 249.727 633.06 250.613 633.06H257.823C260.81 633.06 263.307 633.877 265.313 635.51C267.32 637.097 268.323 639.453 268.323 642.58C268.323 645.847 266.923 648.343 264.123 650.07C261.37 651.797 257.73 652.66 253.203 652.66ZM251.803 624.52C253.95 624.52 255.63 623.657 256.843 621.93C258.057 620.203 258.663 617.8 258.663 614.72C258.663 611.64 258.057 609.237 256.843 607.51C255.63 605.783 253.95 604.92 251.803 604.92C249.657 604.92 247.977 605.783 246.763 607.51C245.55 609.237 244.943 611.64 244.943 614.72C244.943 617.8 245.55 620.203 246.763 621.93C247.977 623.657 249.657 624.52 251.803 624.52ZM253.203 650.98C256.563 650.98 259.503 650.373 262.023 649.16C264.543 647.993 265.803 645.987 265.803 643.14C265.803 641.693 265.36 640.433 264.473 639.36C263.633 638.333 262.14 637.82 259.993 637.82H252.223C249.237 637.82 246.647 638.31 244.453 639.29C242.26 640.317 241.163 642.02 241.163 644.4C241.163 646.593 242.4 648.227 244.873 649.3C247.347 650.42 250.123 650.98 253.203 650.98ZM274.206 634.32H277.846C278.406 634.32 278.803 634.203 279.036 633.97C279.269 633.737 279.386 633.34 279.386 632.78V589.38C279.386 588.82 279.269 588.423 279.036 588.19C278.803 587.957 278.406 587.84 277.846 587.84H274.206V586.16H284.426V632.78C284.426 633.34 284.543 633.737 284.776 633.97C285.009 634.203 285.406 634.32 285.966 634.32H289.606V636H274.206V634.32ZM308.893 636.84C304.553 636.84 301.053 635.37 298.393 632.43C295.78 629.49 294.473 625.407 294.473 620.18C294.473 617.193 295.057 614.417 296.223 611.85C297.39 609.237 299 607.16 301.053 605.62C303.153 604.033 305.487 603.24 308.053 603.24C310.9 603.24 313.233 604.01 315.053 605.55C316.873 607.09 318.18 609.05 318.973 611.43C319.813 613.763 320.233 616.167 320.233 618.64C320.233 619.153 320.07 619.503 319.743 619.69C319.417 619.83 318.857 619.9 318.063 619.9H300.633C300.633 624.567 301.287 628.277 302.593 631.03C303.947 633.783 306.14 635.16 309.173 635.16C311.32 635.16 313.327 634.343 315.193 632.71C317.107 631.077 318.32 628.533 318.833 625.08H320.513C320.233 628.487 319.043 631.31 316.943 633.55C314.89 635.743 312.207 636.84 308.893 636.84ZM314.213 618.22C314.213 614.487 313.723 611.337 312.743 608.77C311.763 606.203 310.153 604.92 307.913 604.92C305.533 604.92 303.713 606.227 302.453 608.84C301.24 611.407 300.633 614.533 300.633 618.22H314.213Z" fill="white"/>
<path d="M122.344 408.077C121.657 410.061 120.354 411.563 118.433 412.583C116.528 413.558 114.319 413.786 111.806 413.264L89.8041 408.702L88.1094 413.597L86.1902 413.199L86.694 411.743C87.3811 409.759 86.8188 407.988 85.0071 406.431C83.1651 404.82 80.896 403.735 78.2001 403.176L75.7326 402.664L76.3738 400.812L89.5338 403.541L92.3736 395.339L94.2928 395.737L91.453 403.939L113.798 408.573C115.168 408.857 116.402 408.829 117.499 408.49C118.597 408.15 119.367 407.341 119.809 406.062C120.893 402.931 118.694 400.797 113.21 399.66L113.623 398.469C116.684 399.104 119.182 400.095 121.115 401.441C123.019 402.734 123.428 404.946 122.344 408.077ZM124.036 395.552L124.998 392.774C125.181 392.244 125.196 391.846 125.044 391.578C124.892 391.31 124.542 391.119 123.994 391.006L99.0444 385.832C98.4961 385.718 98.0695 385.748 97.7647 385.921C97.4599 386.094 97.2159 386.445 97.0327 386.974L96.0708 389.753L94.4258 389.411L97.5404 380.415L104.395 381.837L104.555 381.586C102.499 380.168 101.038 378.588 100.171 376.849C99.2736 375.056 99.1149 373.321 99.6951 371.646C100.275 369.97 101.251 368.707 102.623 367.857C103.995 367.007 105.549 366.762 107.285 367.122C108.29 367.331 109.151 367.887 109.866 368.792C110.596 369.652 110.779 370.612 110.412 371.67C110.122 372.508 109.649 373.166 108.994 373.645C108.338 374.123 107.599 374.277 106.777 374.107C105.817 373.908 105.148 373.296 104.768 372.272C104.631 371.818 104.479 371.48 104.311 371.256C104.159 370.988 103.9 370.816 103.535 370.74C103.123 370.655 102.735 370.787 102.369 371.137C101.973 371.433 101.66 371.911 101.431 372.573C100.958 373.94 101.185 375.405 102.113 376.968C103.057 378.487 104.495 379.849 106.429 381.053C108.363 382.258 110.518 383.106 112.894 383.599L125.643 386.243C126.191 386.357 126.617 386.327 126.922 386.154C127.227 385.981 127.471 385.63 127.654 385.1L128.616 382.322L130.261 382.663L125.681 395.893L124.036 395.552ZM97.4726 354.3C97.1367 355.27 96.5115 356.015 95.5971 356.534C94.6827 357.054 93.7228 357.209 92.7175 357.001C91.6665 356.783 90.9357 356.277 90.525 355.483C90.0686 354.679 90.0083 353.792 90.3442 352.822C90.6954 351.808 91.3205 351.063 92.2197 350.588C93.0884 350.059 94.0483 349.903 95.0993 350.121C96.1046 350.33 96.8354 350.836 97.2918 351.639C97.7635 352.399 97.8237 353.286 97.4726 354.3ZM133.429 368.421L134.391 365.643C134.574 365.113 134.59 364.715 134.438 364.447C134.285 364.179 133.935 363.988 133.387 363.875L108.438 358.701C107.889 358.587 107.463 358.617 107.158 358.79C106.853 358.963 106.609 359.314 106.426 359.843L105.464 362.622L103.819 362.281L106.934 353.284L135.036 359.112C135.584 359.226 136.011 359.196 136.315 359.023C136.62 358.85 136.864 358.499 137.047 357.97L138.009 355.191L139.654 355.532L135.074 368.762L133.429 368.421ZM145.23 341.975C144.42 344.313 143.124 346.218 141.341 347.691C139.572 349.121 137.18 349.523 134.164 348.897C131.834 348.414 130.205 347.462 129.277 346.04C128.348 344.619 127.87 343.102 127.84 341.489C127.781 339.822 127.919 337.866 128.256 335.62L129.198 329.292L123.372 328.084C119.122 327.203 116.288 328.813 114.868 332.914C114.349 334.413 114.287 335.866 114.682 337.271C115.031 338.667 115.708 339.469 116.713 339.678C117.17 339.772 117.536 339.777 117.81 339.692C117.978 339.633 118.161 339.529 118.359 339.381C118.572 339.189 118.732 339.009 118.839 338.842C119.343 338.096 119.869 337.567 120.417 337.255C120.981 336.9 121.629 336.797 122.36 336.949C123.319 337.148 123.905 337.577 124.118 338.235C124.346 338.85 124.315 339.576 124.025 340.414C123.689 341.384 122.996 342.186 121.944 342.818C120.892 343.451 119.635 343.616 118.173 343.312C116.482 342.962 115.173 342.218 114.245 341.08C113.331 339.898 112.822 338.54 112.717 337.005C112.581 335.417 112.772 333.874 113.291 332.374C114.299 329.464 115.969 327.116 118.301 325.331C120.588 323.537 123.399 322.985 126.734 323.677L143.596 327.173C145.88 327.647 147.259 327.201 147.733 325.834C148.114 324.731 147.727 323.8 146.569 323.04C145.412 322.28 143.874 321.701 141.955 321.303L142.367 320.113C145.109 320.681 147.279 321.557 148.878 322.739C150.492 323.877 150.955 325.438 150.268 327.423C149.611 329.319 148.544 330.634 147.066 331.367C145.557 332.047 143.759 332.217 141.673 331.879L141.421 332.182C142.791 333.175 143.948 334.573 144.891 336.375C145.804 338.124 145.917 339.991 145.23 341.975ZM143.129 340.405C143.816 338.421 143.55 336.712 142.333 335.277C141.085 333.79 139.357 332.344 137.149 330.941L130.637 329.591L129.947 335.616C129.671 337.827 130.051 339.56 131.086 340.815C132.09 342.016 133.826 342.872 136.294 343.384C138.396 343.819 139.98 343.699 141.047 343.022C142.068 342.336 142.762 341.464 143.129 340.405Z" fill="white"/>
<path d="M247.082 226.351L248.044 229.129C248.227 229.658 248.471 230.009 248.776 230.183C249.081 230.356 249.507 230.385 250.056 230.272L275.005 225.098C275.553 224.984 275.903 224.793 276.056 224.525C276.208 224.258 276.192 223.859 276.009 223.33L275.047 220.552L276.692 220.21L279.807 229.207L274.186 230.372L274.209 230.651C276.754 231.21 278.811 232.131 280.381 233.412C281.997 234.684 283.118 236.224 283.744 238.032C284.858 241.251 284.616 243.736 283.018 245.485C281.435 247.278 279.204 248.474 276.326 249.071L257.888 252.894C257.34 253.008 256.989 253.199 256.837 253.467C256.685 253.734 256.701 254.133 256.884 254.662L257.846 257.44L256.201 257.781L251.62 244.552L253.265 244.211L254.227 246.989C254.411 247.518 254.655 247.869 254.959 248.042C255.264 248.216 255.691 248.245 256.239 248.131L275.979 244.038C277.99 243.621 279.566 242.869 280.707 241.781C281.864 240.738 282.122 239.29 281.481 237.438C280.947 235.894 279.895 234.624 278.325 233.626C276.816 232.663 274.957 232.032 272.748 231.734C270.599 231.47 268.337 231.585 265.961 232.078L251.705 235.034C251.156 235.148 250.806 235.339 250.654 235.607C250.502 235.874 250.517 236.273 250.7 236.802L251.662 239.58L250.017 239.922L245.437 226.692L247.082 226.351ZM246.759 281.011C245.416 277.131 244.895 273.646 245.197 270.559C245.5 267.471 247.022 265.643 249.763 265.074C251.454 264.724 253.16 265.055 254.883 266.069C256.605 267.082 257.908 268.443 258.793 270.15L258.999 270.107C258.524 266.046 259.542 263.756 262.056 263.234C263.929 262.846 265.628 263.226 267.152 264.375C268.737 265.559 270.064 267.127 271.132 269.08L271.338 269.037C271.519 267.015 272.203 265.171 273.39 263.507C274.638 261.878 276.633 260.779 279.374 260.21C281.705 259.727 283.906 259.861 285.978 260.613C288.051 261.365 289.827 262.533 291.305 264.117C292.845 265.735 293.974 267.581 294.692 269.653C295.134 270.932 295.341 272.236 295.312 273.566C295.343 274.93 295.214 276.115 294.926 277.12C294.698 278.16 294.447 278.85 294.173 279.19C295.499 279.341 296.611 279.795 297.511 280.554C298.41 281.313 299.012 282.133 299.318 283.015C299.837 284.514 299.807 285.844 299.229 287.004C298.651 288.163 297.631 288.895 296.169 289.198C295.072 289.425 294.09 289.346 293.221 288.959C292.368 288.616 291.796 288.025 291.506 287.187C291.262 286.482 291.231 285.827 291.413 285.222C291.641 284.607 292.189 284.21 293.057 284.03C294.063 283.821 294.923 284.045 295.64 284.699C295.914 284.926 296.135 285.069 296.303 285.129C296.532 285.224 296.806 285.238 297.126 285.171C297.491 285.095 297.704 284.862 297.765 284.471C297.826 284.081 297.772 283.643 297.604 283.158C297.329 282.364 296.735 281.708 295.82 281.188C294.967 280.703 294.091 280.507 293.192 280.599C291.837 282.203 289.949 283.256 287.527 283.759C285.242 284.232 283.049 284.12 280.946 283.422C278.889 282.714 277.09 281.551 275.55 279.933C274.072 278.349 272.958 276.476 272.21 274.315C271.34 271.802 270.195 269.629 268.777 267.796C267.42 265.998 265.919 265.269 264.274 265.61C263.406 265.79 262.942 266.288 262.881 267.104C262.821 267.92 263.02 268.99 263.478 270.313C263.798 271.239 264.081 271.984 264.325 272.548C264.554 273.067 264.813 273.746 265.103 274.584L267.462 281.397C268.439 284.219 268.457 286.744 267.514 288.972C266.617 291.191 264.637 292.617 261.576 293.252C258.377 293.916 255.475 293.1 252.868 290.804C250.276 288.553 248.24 285.289 246.759 281.011ZM273.855 273.974C274.557 276.003 275.952 277.415 278.04 278.211C280.127 279.007 282.679 279.092 285.695 278.467C288.711 277.841 290.866 276.78 292.159 275.283C293.453 273.786 293.749 272.023 293.047 269.994C292.344 267.966 290.949 266.554 288.862 265.758C286.774 264.962 284.222 264.876 281.206 265.502C278.191 266.127 276.036 267.189 274.742 268.686C273.448 270.183 273.153 271.946 273.855 273.974ZM248.404 280.67C249.503 283.845 251.059 286.5 253.072 288.635C255.039 290.78 257.416 291.563 260.203 290.985C261.62 290.691 262.708 290.016 263.469 288.96C264.2 287.958 264.214 286.443 263.511 284.414L260.969 277.072C259.992 274.25 258.665 271.902 256.988 270.028C255.265 268.164 253.238 267.473 250.908 267.957C248.76 268.402 247.566 269.902 247.324 272.457C247.036 275.022 247.396 277.76 248.404 280.67ZM271.588 297.134L272.779 300.574C272.963 301.103 273.207 301.454 273.511 301.627C273.816 301.8 274.243 301.83 274.791 301.716L317.287 292.904C317.835 292.79 318.185 292.599 318.338 292.331C318.49 292.064 318.474 291.665 318.291 291.136L317.1 287.696L318.745 287.355L322.089 297.013L276.44 306.479C275.892 306.593 275.541 306.783 275.389 307.051C275.237 307.319 275.253 307.718 275.436 308.247L276.627 311.687L274.982 312.028L269.943 297.475L271.588 297.134ZM280.469 330.424C279.049 326.323 279.344 322.717 281.352 319.606C283.376 316.54 286.947 314.476 292.065 313.415C294.989 312.808 297.899 312.796 300.794 313.377C303.734 313.949 306.294 315.049 308.474 316.676C310.715 318.338 312.255 320.382 313.095 322.808C314.026 325.498 314.035 327.859 313.123 329.891C312.21 331.924 310.719 333.557 308.648 334.79C306.638 336.057 304.422 336.942 302 337.444C301.498 337.549 301.101 337.465 300.812 337.195C300.568 336.914 300.316 336.399 300.057 335.65L294.354 319.179C289.785 320.126 286.366 321.497 284.097 323.291C281.844 325.129 281.214 327.481 282.206 330.348C282.908 332.376 284.364 334.106 286.574 335.539C288.8 337.015 291.687 337.645 295.236 337.429L295.786 339.017C292.359 339.444 289.205 338.893 286.324 337.363C283.505 335.868 281.553 333.555 280.469 330.424ZM300.442 331.67C304.098 330.912 307.022 329.81 309.214 328.362C311.407 326.915 312.137 325.133 311.404 323.016C310.625 320.767 308.75 319.313 305.779 318.653C302.869 318.028 299.609 318.089 295.999 318.838L300.442 331.67Z" fill="white"/>
<line y1="-1" x2="206.556" y2="-1" transform="matrix(0.327164 -0.944967 0.979167 0.203055 28 618.247)" stroke="white" stroke-width="2"/>
<line y1="-1" x2="276.008" y2="-1" transform="matrix(-0.26684 -0.963741 -0.986525 0.163608 379 620.152)" stroke="white" stroke-width="2"/>
</svg>
